<svg width="295" height="76" viewBox="0 0 295 76" fill="none" xmlns="http://www.w3.org/2000/svg">
<path d="M87.832 58.3711C86.7643 58.3711 85.6836 58.2018 84.5898 57.8633C83.5091 57.5117 82.487 56.9974 81.5234 56.3203L80.7422 58.0195L73.3594 58V34.1328H70.8203V28.8008L82.7344 27.5312V39.1523C84.7396 37.5247 86.862 36.7109 89.1016 36.7109C90.8333 36.7109 92.3438 37.1536 93.6328 38.0391C94.9349 38.9245 95.944 40.1745 96.6602 41.7891C97.3763 43.4036 97.7344 45.3047 97.7344 47.4922C97.7344 49.7188 97.3372 51.6458 96.543 53.2734C95.7487 54.901 94.6094 56.1576 93.125 57.043C91.6536 57.9284 89.8893 58.3711 87.832 58.3711ZM85.3906 52.5312C86.4062 52.5312 87.1745 52.0885 87.6953 51.2031C88.2292 50.3177 88.4961 49.0872 88.4961 47.5117C88.4961 45.9492 88.2422 44.7318 87.7344 43.8594C87.2266 42.987 86.5104 42.5508 85.5859 42.5508C85.1042 42.5508 84.5964 42.6354 84.0625 42.8047C83.5286 42.974 83.0859 43.1888 82.7344 43.4492V51.7695C83.5026 52.2773 84.388 52.5312 85.3906 52.5312ZM100.332 58V52.1406H103.164V43.1758H100.332V37.8438L112.344 36.6914V40.6953C113.112 39.276 114.173 38.2409 115.527 37.5898C116.882 36.9388 118.177 36.6133 119.414 36.6133V45.0117C118.242 44.6081 117.168 44.4062 116.191 44.4062C115.54 44.4062 114.857 44.5234 114.141 44.7578C113.424 44.9792 112.891 45.2852 112.539 45.6758V52.1406H117.031V58H100.332ZM132.715 58.3516C130.267 58.3516 128.151 57.9154 126.367 57.043C124.596 56.1706 123.229 54.9271 122.266 53.3125C121.315 51.6979 120.84 49.7773 120.84 47.5508C120.84 45.3112 121.315 43.3841 122.266 41.7695C123.229 40.1549 124.596 38.9115 126.367 38.0391C128.151 37.1536 130.267 36.7109 132.715 36.7109C135.163 36.7109 137.272 37.1536 139.043 38.0391C140.827 38.9115 142.194 40.1549 143.145 41.7695C144.108 43.3841 144.59 45.3112 144.59 47.5508C144.59 49.7773 144.108 51.6979 143.145 53.3125C142.194 54.9271 140.827 56.1706 139.043 57.043C137.272 57.9154 135.163 58.3516 132.715 58.3516ZM132.715 52.668C134.473 52.668 135.352 50.9557 135.352 47.5312C135.352 44.1068 134.473 42.3945 132.715 42.3945C130.957 42.3945 130.078 44.1068 130.078 47.5312C130.078 50.9557 130.957 52.668 132.715 52.668ZM152.969 58L147.715 42.9219H145.859V37.0625H159.98V42.9219H157.637L159.98 51.0078L164.512 37.0625H170.723L175.059 51.9648L177.988 42.9219H175.645V37.0625H185.547V42.9219H183.691L178.438 58H168.379L165.703 50.0898L163.027 58H152.969ZM199.57 58.3516C198.242 58.3516 196.953 58.1953 195.703 57.8828C194.453 57.5703 193.346 57.1211 192.383 56.5352L191.777 58H187.48V50.6562H192.48C192.78 51.6719 193.301 52.4727 194.043 53.0586C194.785 53.6445 195.592 53.9375 196.465 53.9375C197.611 53.9375 198.184 53.5078 198.184 52.6484C198.184 52.0234 197.923 51.5417 197.402 51.2031C196.895 50.8646 196.23 50.5781 195.41 50.3438C194.603 50.1094 193.743 49.8555 192.832 49.582C191.921 49.3086 191.055 48.9375 190.234 48.4688C189.427 47.987 188.763 47.3359 188.242 46.5156C187.734 45.6823 187.48 44.5951 187.48 43.2539C187.48 42.043 187.799 40.9427 188.438 39.9531C189.089 38.9635 190.065 38.1758 191.367 37.5898C192.682 36.9909 194.329 36.6914 196.309 36.6914C197.585 36.6914 198.763 36.8281 199.844 37.1016C200.938 37.362 201.96 37.7852 202.91 38.3711L203.379 37.0625H207.676V43.7812H202.676C202.337 42.7917 201.849 42.069 201.211 41.6133C200.586 41.1445 199.909 40.9102 199.18 40.9102C197.904 40.9102 197.266 41.3008 197.266 42.082C197.266 42.6289 197.526 43.0651 198.047 43.3906C198.581 43.7031 199.258 43.9766 200.078 44.2109C200.911 44.4453 201.79 44.7122 202.715 45.0117C203.639 45.3112 204.512 45.7148 205.332 46.2227C206.165 46.7305 206.842 47.4076 207.363 48.2539C207.897 49.1003 208.164 50.2005 208.164 51.5547C208.164 53.625 207.415 55.2786 205.918 56.5156C204.434 57.7396 202.318 58.3516 199.57 58.3516ZM222.52 58.3516C218.652 58.3516 215.618 57.3815 213.418 55.4414C211.23 53.4883 210.137 50.7865 210.137 47.3359C210.137 45.1615 210.612 43.2799 211.562 41.6914C212.526 40.1029 213.867 38.8789 215.586 38.0195C217.305 37.1471 219.303 36.7109 221.582 36.7109C223.809 36.7109 225.716 37.1211 227.305 37.9414C228.893 38.7487 230.104 39.8815 230.938 41.3398C231.784 42.7852 232.207 44.4583 232.207 46.3594C232.207 46.8021 232.188 47.2318 232.148 47.6484C232.109 48.0521 232.064 48.4232 232.012 48.7617H219.453C219.674 50.0898 220.273 51.0469 221.25 51.6328C222.24 52.2057 223.444 52.4922 224.863 52.4922C226.061 52.4922 227.201 52.2839 228.281 51.8672C229.375 51.4375 230.299 50.9036 231.055 50.2656L231.582 50.5V56.1055C230.957 56.5352 230.15 56.9193 229.16 57.2578C228.171 57.5964 227.096 57.8633 225.938 58.0586C224.792 58.2539 223.652 58.3516 222.52 58.3516ZM222.09 41.5156C221.217 41.5156 220.56 41.8542 220.117 42.5312C219.674 43.2083 219.427 44.1523 219.375 45.3633H224.805C224.753 44.1523 224.505 43.2083 224.062 42.5312C223.633 41.8542 222.975 41.5156 222.09 41.5156ZM247.559 58.5273C245.905 58.5273 244.577 58.0781 243.574 57.1797C242.572 56.2812 242.07 55.0703 242.07 53.5469C242.07 52.0365 242.572 50.8451 243.574 49.9727C244.577 49.1003 245.905 48.6641 247.559 48.6641C249.225 48.6641 250.553 49.1003 251.543 49.9727C252.546 50.8451 253.047 52.0365 253.047 53.5469C253.047 55.0703 252.546 56.2812 251.543 57.1797C250.54 58.0781 249.212 58.5273 247.559 58.5273ZM267.949 58.5273C266.296 58.5273 264.967 58.0781 263.965 57.1797C262.962 56.2812 262.461 55.0703 262.461 53.5469C262.461 52.0365 262.962 50.8451 263.965 49.9727C264.967 49.1003 266.296 48.6641 267.949 48.6641C269.616 48.6641 270.944 49.1003 271.934 49.9727C272.936 50.8451 273.438 52.0365 273.438 53.5469C273.438 55.0703 272.936 56.2812 271.934 57.1797C270.931 58.0781 269.603 58.5273 267.949 58.5273ZM288.34 58.5273C286.686 58.5273 285.358 58.0781 284.355 57.1797C283.353 56.2812 282.852 55.0703 282.852 53.5469C282.852 52.0365 283.353 50.8451 284.355 49.9727C285.358 49.1003 286.686 48.6641 288.34 48.6641C290.007 48.6641 291.335 49.1003 292.324 49.9727C293.327 50.8451 293.828 52.0365 293.828 53.5469C293.828 55.0703 293.327 56.2812 292.324 57.1797C291.322 58.0781 289.993 58.5273 288.34 58.5273Z" fill="black"/>
<path d="M41.5467 16.3199C42.749 16.3199 43.9021 16.7976 44.7522 17.6477C45.6024 18.4979 46.08 19.651 46.08 20.8533V24.5866C46.08 25.5161 45.7942 26.4232 45.2615 27.1849C44.7287 27.9465 43.9747 28.526 43.1015 28.8448C42.2284 29.1636 41.2784 29.2064 40.3802 28.9672C39.482 28.728 38.679 28.2185 38.08 27.5077C37.4811 28.2185 36.6781 28.728 35.7799 28.9672C34.8816 29.2064 33.9316 29.1636 33.0585 28.8448C32.1854 28.526 31.4313 27.9465 30.8986 27.1849C30.3658 26.4232 30.08 25.5161 30.08 24.5866V20.8533C30.08 19.9238 30.3658 19.0167 30.8986 18.255C31.4313 17.4934 32.1854 16.9139 33.0585 16.5951C33.9316 16.2762 34.8816 16.2335 35.7799 16.4727C36.6781 16.7119 37.4811 17.2214 38.08 17.9322C38.5051 17.4266 39.0357 17.0203 39.6346 16.7418C40.2335 16.4632 40.8862 16.3192 41.5467 16.3199ZM38.696 18.8799C38.993 19.4954 39.1471 20.1699 39.1467 20.8533V24.5866C39.1467 25.2938 38.9845 25.9631 38.696 26.5599C39.1165 27.1676 39.7202 27.625 40.4189 27.8654C41.1177 28.1058 41.875 28.1166 42.5803 27.8963C43.2856 27.6759 43.9021 27.236 44.3398 26.6406C44.7775 26.0452 45.0135 25.3256 45.0134 24.5866V24.0533C45.0134 24.2984 44.9651 24.5411 44.8713 24.7676C44.7774 24.9941 44.64 25.1999 44.4666 25.3732C44.2933 25.5466 44.0875 25.684 43.861 25.7779C43.6346 25.8717 43.3918 25.9199 43.1467 25.9199C42.9015 25.9199 42.6588 25.8717 42.4323 25.7779C42.2059 25.684 42.0001 25.5466 41.8268 25.3732C41.6534 25.1999 41.5159 24.9941 41.4221 24.7676C41.3283 24.5411 41.28 24.2984 41.28 24.0533V21.3866C41.28 21.1415 41.3283 20.8987 41.4221 20.6723C41.5159 20.4458 41.6534 20.24 41.8268 20.0667C42.0001 19.8933 42.2059 19.7558 42.4323 19.662C42.6588 19.5682 42.9015 19.5199 43.1467 19.5199C43.3918 19.5199 43.6346 19.5682 43.861 19.662C44.0875 19.7558 44.2933 19.8933 44.4666 20.0667C44.64 20.24 44.7774 20.4458 44.8713 20.6723C44.9651 20.8987 45.0134 21.1415 45.0134 21.3866V20.8533C45.0135 20.1143 44.7775 19.3947 44.3398 18.7993C43.9021 18.2039 43.2856 17.764 42.5803 17.5436C41.875 17.3233 41.1177 17.3341 40.4189 17.5745C39.7202 17.8149 39.1165 18.2723 38.696 18.8799ZM38.08 20.8533C38.08 19.9339 37.7148 19.0521 37.0647 18.402C36.4145 17.7519 35.5328 17.3866 34.6133 17.3866C33.6939 17.3866 32.8122 17.7519 32.162 18.402C31.5119 19.0521 31.1467 19.9339 31.1467 20.8533V24.5866C31.1467 25.506 31.5119 26.3878 32.162 27.0379C32.8122 27.688 33.6939 28.0533 34.6133 28.0533C35.5328 28.0533 36.4145 27.688 37.0647 27.0379C37.7148 26.3878 38.08 25.506 38.08 24.5866V24.0533C38.08 24.5484 37.8834 25.0231 37.5333 25.3732C37.1832 25.7233 36.7084 25.9199 36.2133 25.9199C35.7183 25.9199 35.2435 25.7233 34.8934 25.3732C34.5433 25.0231 34.3467 24.5484 34.3467 24.0533V21.3866C34.3467 20.8915 34.5433 20.4168 34.8934 20.0667C35.2435 19.7166 35.7183 19.5199 36.2133 19.5199C36.7084 19.5199 37.1832 19.7166 37.5333 20.0667C37.8834 20.4168 38.08 20.8915 38.08 21.3866V20.8533ZM41.9861 21.5791C42.184 21.7445 42.5141 21.6735 42.7237 21.4223C42.9333 21.1706 42.9424 20.833 42.7445 20.6682C42.5461 20.5029 42.216 20.5733 42.0064 20.825C41.7968 21.0767 41.7877 21.4143 41.9861 21.5791ZM35.0421 20.825C34.8325 21.0767 34.8235 21.4143 35.0208 21.5791C35.2192 21.7445 35.5499 21.6735 35.7589 21.4223C35.9685 21.1706 35.9776 20.833 35.7797 20.6682C35.5813 20.5029 35.2512 20.5733 35.0416 20.825" fill="black"/>
<path fill-rule="evenodd" clip-rule="evenodd" d="M29.99 2.97002e-06C28.6062 -0.000518031 27.2398 0.309124 25.9914 0.906161C24.743 1.5032 23.6443 2.37245 22.776 3.45C21.1822 2.59842 19.4031 2.15262 17.596 2.152C11.05 2.152 6.182 7.7 6.292 13.842C2.572 15.716 2.38419e-07 19.538 2.38419e-07 24.01C2.38419e-07 28.464 1.92 31.228 3.948 32.842C4.78 33.504 5.604 33.956 6.27 34.26C6.214 40.366 11.07 45.848 17.576 45.848C19.468 45.848 21.224 45.372 22.766 44.554C23.6342 45.63 24.7324 46.4978 25.9798 47.0939C27.2273 47.6901 28.5924 47.9993 29.975 47.9989C31.3575 47.9985 32.7225 47.6885 33.9696 47.0917C35.2167 46.4949 36.3144 45.6264 37.182 44.55C38.7758 45.4016 40.5549 45.8474 42.362 45.848C48.906 45.848 53.774 40.308 53.668 34.168C57.408 32.308 60 28.488 60 24.01C60 19.556 58.08 16.792 56.052 15.178C55.3385 14.6127 54.5587 14.1366 53.73 13.76C53.786 7.654 48.93 2.172 42.424 2.172C40.613 2.17003 38.8296 2.6152 37.232 3.468C36.3616 2.38456 35.259 1.51044 34.0055 0.91019C32.752 0.309942 31.3798 -0.00110884 29.99 2.97002e-06ZM25.196 7.068C25.6206 6.15362 26.2971 5.3793 27.1462 4.83588C27.9954 4.29246 28.9819 4.0025 29.99 4C32.114 4 33.942 5.24 34.832 7.108C34.962 7.3805 35.1521 7.62003 35.3878 7.80861C35.6236 7.9972 35.8991 8.12996 36.1935 8.19692C36.4879 8.26388 36.7936 8.26332 37.0878 8.19527C37.382 8.12722 37.6569 7.99346 37.892 7.804C39.1688 6.75293 40.7702 6.17628 42.424 6.172C46.914 6.172 50.324 10.34 49.644 14.78C49.5886 15.1396 49.6323 15.5074 49.7705 15.844C49.9086 16.1805 50.136 16.4731 50.428 16.69C50.594 16.814 50.744 16.886 50.784 16.904C50.89 16.954 50.984 16.988 51.016 17L51.204 17.064L51.252 17.08C51.4067 17.1293 51.6027 17.2027 51.84 17.3C52.32 17.5 52.944 17.816 53.56 18.306C54.724 19.234 56 20.886 56 24.01C56 27.25 53.888 29.996 50.92 30.984C50.4701 31.134 50.0882 31.439 49.8424 31.8446C49.5966 32.2501 49.5029 32.7298 49.578 33.198C50.286 37.648 46.87 41.848 42.364 41.848C40.666 41.848 39.112 41.23 37.818 40.208C37.5813 40.0206 37.3052 39.8891 37.0105 39.8236C36.7158 39.758 36.41 39.7601 36.1162 39.8295C35.8223 39.899 35.5481 40.0341 35.3139 40.2247C35.0797 40.4153 34.8917 40.6564 34.764 40.93C34.3397 41.8448 33.6633 42.6195 32.8142 43.1633C31.965 43.7071 30.9783 43.9973 29.97 44C27.866 44 26.042 42.758 25.17 40.92C25.0407 40.6469 24.8513 40.4066 24.6158 40.2172C24.3804 40.0278 24.1051 39.8942 23.8106 39.8264C23.5161 39.7587 23.2101 39.7585 22.9156 39.826C22.621 39.8935 22.3456 40.0268 22.11 40.216C20.8326 41.2675 19.2305 41.8442 17.576 41.848C13.086 41.848 9.676 37.68 10.356 33.24C10.4114 32.8804 10.3677 32.5126 10.2295 32.176C10.0914 31.8395 9.86404 31.547 9.572 31.33C9.46108 31.2465 9.34177 31.1748 9.216 31.116C9.14075 31.0792 9.06327 31.0471 8.984 31.02L8.796 30.956L8.748 30.94C8.5492 30.8744 8.35305 30.801 8.16 30.72C7.54281 30.466 6.96394 30.1274 6.44 29.714C5.278 28.784 4 27.134 4 24.01C4 20.762 6.1 18.016 9.052 17.01C9.49807 16.8579 9.8761 16.5532 10.1194 16.1496C10.3628 15.746 10.4558 15.2695 10.382 14.804C9.674 10.352 13.088 6.152 17.596 6.152C19.294 6.152 20.848 6.77 22.142 7.792C22.3788 7.97939 22.655 8.11072 22.9498 8.17612C23.2447 8.24153 23.5505 8.23932 23.8443 8.16965C24.1382 8.09999 24.4125 7.96469 24.6466 7.77389C24.8806 7.5831 25.0685 7.34176 25.196 7.068ZM7 44C6.08075 44 5.1705 44.1811 4.32122 44.5328C3.47194 44.8846 2.70026 45.4002 2.05025 46.0503C1.40024 46.7003 0.884626 47.4719 0.532843 48.3212C0.18106 49.1705 0 50.0808 0 51C0 51.9193 0.18106 52.8295 0.532843 53.6788C0.884626 54.5281 1.40024 55.2997 2.05025 55.9498C2.70026 56.5998 3.47194 57.1154 4.32122 57.4672C5.1705 57.8189 6.08075 58 7 58C8.85652 58 10.637 57.2625 11.9497 55.9498C13.2625 54.637 14 52.8565 14 51C14 49.1435 13.2625 47.363 11.9497 46.0503C10.637 44.7375 8.85652 44 7 44ZM4 51C4 50.2044 4.31607 49.4413 4.87868 48.8787C5.44129 48.3161 6.20435 48 7 48C7.79565 48 8.55871 48.3161 9.12132 48.8787C9.68393 49.4413 10 50.2044 10 51C10 51.7957 9.68393 52.5587 9.12132 53.1213C8.55871 53.6839 7.79565 54 7 54C6.20435 54 5.44129 53.6839 4.87868 53.1213C4.31607 52.5587 4 51.7957 4 51Z" fill="black"/>
</svg>
