<svg width="232" height="19" viewBox="0 0 232 19" fill="none" xmlns="http://www.w3.org/2000/svg">
<path d="M3.33333 10.3334V5.88892H1.66667C1.22464 5.88892 0.800716 6.06451 0.488155 6.37707C0.175595 6.68963 0 7.11356 0 7.55558V17.5556C0.000826834 17.6588 0.0303706 17.7597 0.0853202 17.847C0.14027 17.9343 0.218454 18.0046 0.311111 18.05C0.400377 18.0906 0.498798 18.1069 0.596375 18.0971C0.693952 18.0874 0.787207 18.0519 0.866667 17.9945L3.72778 15.8889H11.1944C11.405 15.8951 11.6146 15.8581 11.8103 15.78C12.0059 15.7019 12.1834 15.5845 12.3319 15.435C12.4803 15.2856 12.5965 15.1072 12.6732 14.911C12.7499 14.7148 12.7855 14.505 12.7778 14.2945V13.6667H6.66667C5.78261 13.6667 4.93477 13.3155 4.30964 12.6904C3.68452 12.0653 3.33333 11.2174 3.33333 10.3334Z" fill="black" fill-opacity="0.5"/>
<path d="M16.1111 2H6.66667C6.22464 2 5.80072 2.17559 5.48816 2.48816C5.17559 2.80072 5 3.22464 5 3.66667V10.3333C5 10.7754 5.17559 11.1993 5.48816 11.5118C5.80072 11.8244 6.22464 12 6.66667 12H14.1944L16.85 14.0611C16.9289 14.1195 17.0219 14.1559 17.1195 14.1666C17.2171 14.1774 17.3158 14.162 17.4056 14.1222C17.5001 14.0772 17.58 14.0064 17.636 13.9179C17.692 13.8294 17.7219 13.7269 17.7222 13.6222V3.66667C17.7225 3.2341 17.5545 2.81838 17.2539 2.50737C16.9532 2.19636 16.5434 2.01442 16.1111 2Z" fill="black" fill-opacity="0.5"/>
<path d="M32.3919 9.346C32.3919 10.0653 32.3009 10.7197 32.1189 11.309C31.9456 11.8897 31.6769 12.3923 31.3129 12.817C30.9576 13.2417 30.5026 13.5623 29.9479 13.779L32.1839 16.21H29.9739L28.2449 14.13C28.2102 14.13 28.1712 14.13 28.1279 14.13C28.0932 14.13 28.0586 14.13 28.0239 14.13C27.2786 14.13 26.6286 14.0173 26.0739 13.792C25.5279 13.558 25.0772 13.233 24.7219 12.817C24.3666 12.3923 24.0979 11.8853 23.9159 11.296C23.7426 10.7067 23.6559 10.0523 23.6559 9.333C23.6559 8.371 23.8119 7.53467 24.1239 6.824C24.4446 6.11333 24.9256 5.563 25.5669 5.173C26.2169 4.77433 27.0402 4.575 28.0369 4.575C29.0162 4.575 29.8266 4.77433 30.4679 5.173C31.1092 5.563 31.5902 6.11767 31.9109 6.837C32.2316 7.54767 32.3919 8.384 32.3919 9.346ZM25.4109 9.346C25.4109 10.048 25.5019 10.6503 25.6839 11.153C25.8746 11.6557 26.1606 12.0413 26.5419 12.31C26.9319 12.5787 27.4259 12.713 28.0239 12.713C28.6392 12.713 29.1376 12.5787 29.5189 12.31C29.9002 12.0413 30.1819 11.6557 30.3639 11.153C30.5459 10.6503 30.6369 10.048 30.6369 9.346C30.6369 8.29733 30.4332 7.474 30.0259 6.876C29.6186 6.278 28.9556 5.979 28.0369 5.979C27.4302 5.979 26.9319 6.11333 26.5419 6.382C26.1606 6.65067 25.8746 7.03633 25.6839 7.539C25.5019 8.04167 25.4109 8.644 25.4109 9.346ZM40.4654 6.954V14H39.1784L38.9574 13.09H38.8794C38.7321 13.3327 38.5414 13.532 38.3074 13.688C38.0734 13.8353 37.8178 13.9437 37.5404 14.013C37.2631 14.091 36.9771 14.13 36.6824 14.13C36.1624 14.13 35.7118 14.039 35.3304 13.857C34.9491 13.675 34.6588 13.3977 34.4594 13.025C34.2601 12.6437 34.1604 12.154 34.1604 11.556V6.954H35.7984V11.231C35.7984 11.751 35.9024 12.1453 36.1104 12.414C36.3184 12.674 36.6478 12.804 37.0984 12.804C37.5404 12.804 37.8871 12.713 38.1384 12.531C38.3898 12.3403 38.5674 12.0673 38.6714 11.712C38.7754 11.3567 38.8274 10.919 38.8274 10.399V6.954H40.4654ZM45.3872 6.824C46.0199 6.824 46.5616 6.954 47.0122 7.214C47.4716 7.46533 47.8269 7.82933 48.0782 8.306C48.3296 8.774 48.4552 9.346 48.4552 10.022V10.854H43.8012C43.8186 11.4953 43.9962 11.9937 44.3342 12.349C44.6722 12.6957 45.1402 12.869 45.7382 12.869C46.1976 12.869 46.6049 12.8257 46.9602 12.739C47.3242 12.6437 47.6969 12.5093 48.0782 12.336V13.649C47.7316 13.8137 47.3719 13.935 46.9992 14.013C46.6266 14.091 46.1802 14.13 45.6602 14.13C44.9756 14.13 44.3646 14 43.8272 13.74C43.2986 13.4713 42.8826 13.0683 42.5792 12.531C42.2846 11.9937 42.1372 11.3263 42.1372 10.529C42.1372 9.723 42.2716 9.047 42.5402 8.501C42.8176 7.94633 43.1989 7.53033 43.6842 7.253C44.1696 6.967 44.7372 6.824 45.3872 6.824ZM45.3872 8.033C44.9539 8.033 44.5986 8.176 44.3212 8.462C44.0526 8.73933 43.8922 9.15533 43.8402 9.71H46.8692C46.8692 9.38067 46.8129 9.09033 46.7002 8.839C46.5962 8.58767 46.4359 8.39267 46.2192 8.254C46.0026 8.10667 45.7252 8.033 45.3872 8.033ZM54.904 11.959C54.904 12.427 54.7913 12.8257 54.566 13.155C54.3406 13.4757 54.007 13.7183 53.565 13.883C53.1316 14.0477 52.5986 14.13 51.966 14.13C51.472 14.13 51.0473 14.0953 50.692 14.026C50.3366 13.9567 49.9986 13.8483 49.678 13.701V12.31C50.0246 12.4747 50.4103 12.6133 50.835 12.726C51.2596 12.8387 51.654 12.895 52.018 12.895C52.4686 12.895 52.7936 12.8257 52.993 12.687C53.1923 12.5483 53.292 12.362 53.292 12.128C53.292 11.9893 53.253 11.8637 53.175 11.751C53.097 11.6383 52.9453 11.5213 52.72 11.4C52.4946 11.27 52.1523 11.1097 51.693 10.919C51.2423 10.737 50.8653 10.555 50.562 10.373C50.2673 10.191 50.042 9.97433 49.886 9.723C49.7386 9.463 49.665 9.138 49.665 8.748C49.665 8.11533 49.9163 7.63867 50.419 7.318C50.9216 6.98867 51.5846 6.824 52.408 6.824C52.8413 6.824 53.2486 6.86733 53.63 6.954C54.02 7.032 54.41 7.162 54.8 7.344L54.28 8.553C54.0633 8.45767 53.8466 8.37533 53.63 8.306C53.422 8.228 53.2096 8.16733 52.993 8.124C52.785 8.08067 52.5726 8.059 52.356 8.059C52.0006 8.059 51.732 8.11533 51.55 8.228C51.368 8.332 51.277 8.47933 51.277 8.67C51.277 8.81733 51.3203 8.94733 51.407 9.06C51.5023 9.164 51.6626 9.27233 51.888 9.385C52.122 9.489 52.4513 9.62767 52.876 9.801C53.3006 9.96567 53.6603 10.139 53.955 10.321C54.2583 10.4943 54.4923 10.711 54.657 10.971C54.8216 11.231 54.904 11.5603 54.904 11.959ZM59.21 12.817C59.418 12.817 59.6173 12.7997 59.808 12.765C59.9987 12.7217 60.1763 12.674 60.341 12.622V13.844C60.1677 13.922 59.9423 13.987 59.665 14.039C59.3877 14.0997 59.0973 14.13 58.794 14.13C58.3953 14.13 58.0313 14.065 57.702 13.935C57.3813 13.7963 57.1213 13.5623 56.922 13.233C56.7313 12.9037 56.636 12.4443 56.636 11.855V8.189H55.687V7.474L56.727 6.902L57.247 5.407H58.274V6.954H60.276V8.189H58.274V11.842C58.274 12.1713 58.3607 12.4183 58.534 12.583C58.7073 12.739 58.9327 12.817 59.21 12.817ZM63.3993 6.954V14H61.7613V6.954H63.3993ZM62.5803 4.237C62.8229 4.237 63.0353 4.302 63.2173 4.432C63.3993 4.55333 63.4903 4.77433 63.4903 5.095C63.4903 5.407 63.3993 5.63233 63.2173 5.771C63.0353 5.901 62.8229 5.966 62.5803 5.966C62.3289 5.966 62.1123 5.901 61.9303 5.771C61.7569 5.63233 61.6703 5.407 61.6703 5.095C61.6703 4.77433 61.7569 4.55333 61.9303 4.432C62.1123 4.302 62.3289 4.237 62.5803 4.237ZM71.7857 10.464C71.7857 11.0533 71.7077 11.5733 71.5517 12.024C71.3957 12.4747 71.1703 12.8603 70.8757 13.181C70.5897 13.493 70.2343 13.7313 69.8097 13.896C69.3937 14.052 68.93 14.13 68.4187 14.13C67.9333 14.13 67.487 14.052 67.0797 13.896C66.6723 13.7313 66.317 13.493 66.0137 13.181C65.719 12.8603 65.4893 12.4747 65.3247 12.024C65.16 11.5733 65.0777 11.0533 65.0777 10.464C65.0777 9.684 65.212 9.02533 65.4807 8.488C65.7493 7.942 66.135 7.53033 66.6377 7.253C67.149 6.967 67.7513 6.824 68.4447 6.824C69.1033 6.824 69.6797 6.967 70.1737 7.253C70.6763 7.53033 71.0707 7.942 71.3567 8.488C71.6427 9.02533 71.7857 9.684 71.7857 10.464ZM66.7547 10.464C66.7547 10.958 66.811 11.3827 66.9237 11.738C67.045 12.0847 67.227 12.349 67.4697 12.531C67.721 12.713 68.0417 12.804 68.4317 12.804C68.8303 12.804 69.151 12.713 69.3937 12.531C69.645 12.349 69.827 12.0847 69.9397 11.738C70.0523 11.3827 70.1087 10.958 70.1087 10.464C70.1087 9.96133 70.048 9.541 69.9267 9.203C69.814 8.85633 69.632 8.59633 69.3807 8.423C69.138 8.241 68.8217 8.15 68.4317 8.15C67.8423 8.15 67.4133 8.34933 67.1447 8.748C66.8847 9.14667 66.7547 9.71867 66.7547 10.464ZM77.249 6.824C78.0377 6.824 78.653 7.02767 79.095 7.435C79.5457 7.84233 79.771 8.501 79.771 9.411V14H78.133V9.736C78.133 9.20733 78.029 8.813 77.821 8.553C77.613 8.28433 77.2837 8.15 76.833 8.15C76.1744 8.15 75.7237 8.358 75.481 8.774C75.2384 9.18133 75.117 9.775 75.117 10.555V14H73.479V6.954H74.74L74.974 7.877H75.065C75.221 7.63433 75.4117 7.435 75.637 7.279C75.8624 7.123 76.1137 7.01033 76.391 6.941C76.6684 6.863 76.9544 6.824 77.249 6.824ZM86.6168 11.959C86.6168 12.427 86.5042 12.8257 86.2788 13.155C86.0535 13.4757 85.7198 13.7183 85.2778 13.883C84.8445 14.0477 84.3115 14.13 83.6788 14.13C83.1848 14.13 82.7602 14.0953 82.4048 14.026C82.0495 13.9567 81.7115 13.8483 81.3908 13.701V12.31C81.7375 12.4747 82.1232 12.6133 82.5478 12.726C82.9725 12.8387 83.3668 12.895 83.7308 12.895C84.1815 12.895 84.5065 12.8257 84.7058 12.687C84.9052 12.5483 85.0048 12.362 85.0048 12.128C85.0048 11.9893 84.9658 11.8637 84.8878 11.751C84.8098 11.6383 84.6582 11.5213 84.4328 11.4C84.2075 11.27 83.8652 11.1097 83.4058 10.919C82.9552 10.737 82.5782 10.555 82.2748 10.373C81.9802 10.191 81.7548 9.97433 81.5988 9.723C81.4515 9.463 81.3778 9.138 81.3778 8.748C81.3778 8.11533 81.6292 7.63867 82.1318 7.318C82.6345 6.98867 83.2975 6.824 84.1208 6.824C84.5542 6.824 84.9615 6.86733 85.3428 6.954C85.7328 7.032 86.1228 7.162 86.5128 7.344L85.9928 8.553C85.7762 8.45767 85.5595 8.37533 85.3428 8.306C85.1348 8.228 84.9225 8.16733 84.7058 8.124C84.4978 8.08067 84.2855 8.059 84.0688 8.059C83.7135 8.059 83.4448 8.11533 83.2628 8.228C83.0808 8.332 82.9898 8.47933 82.9898 8.67C82.9898 8.81733 83.0332 8.94733 83.1198 9.06C83.2152 9.164 83.3755 9.27233 83.6008 9.385C83.8348 9.489 84.1642 9.62767 84.5888 9.801C85.0135 9.96567 85.3732 10.139 85.6678 10.321C85.9712 10.4943 86.2052 10.711 86.3698 10.971C86.5345 11.231 86.6168 11.5603 86.6168 11.959ZM95.2618 6.824C95.3658 6.824 95.4872 6.82833 95.6258 6.837C95.7645 6.84567 95.8815 6.863 95.9768 6.889L95.8338 8.41C95.7558 8.39267 95.6518 8.37967 95.5218 8.371C95.4005 8.35367 95.2922 8.345 95.1968 8.345C94.9368 8.345 94.6855 8.38833 94.4428 8.475C94.2088 8.553 93.9965 8.67433 93.8058 8.839C93.6238 8.995 93.4765 9.19867 93.3638 9.45C93.2598 9.70133 93.2078 10.0003 93.2078 10.347V14H91.5698V6.954H92.8308L93.0648 8.176H93.1428C93.2815 7.92467 93.4548 7.69933 93.6628 7.5C93.8708 7.292 94.1092 7.12733 94.3778 7.006C94.6552 6.88467 94.9498 6.824 95.2618 6.824ZM99.8628 6.824C100.495 6.824 101.037 6.954 101.488 7.214C101.947 7.46533 102.302 7.82933 102.554 8.306C102.805 8.774 102.931 9.346 102.931 10.022V10.854H98.2768C98.2942 11.4953 98.4718 11.9937 98.8098 12.349C99.1478 12.6957 99.6158 12.869 100.214 12.869C100.673 12.869 101.08 12.8257 101.436 12.739C101.8 12.6437 102.172 12.5093 102.554 12.336V13.649C102.207 13.8137 101.847 13.935 101.475 14.013C101.102 14.091 100.656 14.13 100.136 14.13C99.4512 14.13 98.8402 14 98.3028 13.74C97.7742 13.4713 97.3582 13.0683 97.0548 12.531C96.7602 11.9937 96.6128 11.3263 96.6128 10.529C96.6128 9.723 96.7472 9.047 97.0158 8.501C97.2932 7.94633 97.6745 7.53033 98.1598 7.253C98.6452 6.967 99.2128 6.824 99.8628 6.824ZM99.8628 8.033C99.4295 8.033 99.0742 8.176 98.7968 8.462C98.5282 8.73933 98.3678 9.15533 98.3158 9.71H101.345C101.345 9.38067 101.288 9.09033 101.176 8.839C101.072 8.58767 100.911 8.39267 100.695 8.254C100.478 8.10667 100.201 8.033 99.8628 8.033ZM108.288 6.824C109.111 6.824 109.774 7.13167 110.277 7.747C110.779 8.35367 111.031 9.25933 111.031 10.464C111.031 11.2613 110.914 11.933 110.68 12.479C110.446 13.025 110.121 13.4367 109.705 13.714C109.289 13.9913 108.803 14.13 108.249 14.13C107.911 14.13 107.612 14.0867 107.352 14C107.092 13.9047 106.871 13.7877 106.689 13.649C106.507 13.5017 106.351 13.3457 106.221 13.181H106.117C106.151 13.337 106.177 13.5147 106.195 13.714C106.212 13.9047 106.221 14.0867 106.221 14.26V17.12H104.583V6.954H105.909L106.143 7.89H106.221C106.351 7.69067 106.507 7.513 106.689 7.357C106.879 7.19233 107.105 7.06233 107.365 6.967C107.633 6.87167 107.941 6.824 108.288 6.824ZM107.82 8.15C107.438 8.15 107.131 8.228 106.897 8.384C106.663 8.53133 106.494 8.761 106.39 9.073C106.286 9.385 106.229 9.775 106.221 10.243V10.451C106.221 10.9537 106.268 11.3783 106.364 11.725C106.468 12.0717 106.637 12.336 106.871 12.518C107.113 12.7 107.438 12.791 107.846 12.791C108.192 12.791 108.474 12.6957 108.691 12.505C108.916 12.3143 109.081 12.0457 109.185 11.699C109.297 11.3437 109.354 10.9233 109.354 10.438C109.354 9.71 109.228 9.14667 108.977 8.748C108.734 8.34933 108.348 8.15 107.82 8.15ZM114.358 14H112.72V4.12H114.358V14ZM118.091 6.954V14H116.453V6.954H118.091ZM117.272 4.237C117.514 4.237 117.727 4.302 117.909 4.432C118.091 4.55333 118.182 4.77433 118.182 5.095C118.182 5.407 118.091 5.63233 117.909 5.771C117.727 5.901 117.514 5.966 117.272 5.966C117.02 5.966 116.804 5.901 116.622 5.771C116.448 5.63233 116.362 5.407 116.362 5.095C116.362 4.77433 116.448 4.55333 116.622 4.432C116.804 4.302 117.02 4.237 117.272 4.237ZM123.019 6.824C123.652 6.824 124.193 6.954 124.644 7.214C125.103 7.46533 125.459 7.82933 125.71 8.306C125.961 8.774 126.087 9.346 126.087 10.022V10.854H121.433C121.45 11.4953 121.628 11.9937 121.966 12.349C122.304 12.6957 122.772 12.869 123.37 12.869C123.829 12.869 124.237 12.8257 124.592 12.739C124.956 12.6437 125.329 12.5093 125.71 12.336V13.649C125.363 13.8137 125.004 13.935 124.631 14.013C124.258 14.091 123.812 14.13 123.292 14.13C122.607 14.13 121.996 14 121.459 13.74C120.93 13.4713 120.514 13.0683 120.211 12.531C119.916 11.9937 119.769 11.3263 119.769 10.529C119.769 9.723 119.903 9.047 120.172 8.501C120.449 7.94633 120.831 7.53033 121.316 7.253C121.801 6.967 122.369 6.824 123.019 6.824ZM123.019 8.033C122.586 8.033 122.23 8.176 121.953 8.462C121.684 8.73933 121.524 9.15533 121.472 9.71H124.501C124.501 9.38067 124.445 9.09033 124.332 8.839C124.228 8.58767 124.068 8.39267 123.851 8.254C123.634 8.10667 123.357 8.033 123.019 8.033ZM130.066 14.13C129.251 14.13 128.588 13.8267 128.077 13.22C127.574 12.6047 127.323 11.6947 127.323 10.49C127.323 9.28533 127.578 8.37533 128.09 7.76C128.601 7.136 129.273 6.824 130.105 6.824C130.451 6.824 130.755 6.87167 131.015 6.967C131.283 7.05367 131.513 7.175 131.704 7.331C131.894 7.487 132.055 7.66033 132.185 7.851H132.263C132.237 7.72967 132.211 7.54333 132.185 7.292C132.159 7.04067 132.146 6.80667 132.146 6.59V4.12H133.784V14H132.51L132.211 13.077H132.146C132.016 13.2677 131.855 13.4453 131.665 13.61C131.474 13.766 131.249 13.8917 130.989 13.987C130.729 14.0823 130.421 14.13 130.066 14.13ZM130.56 12.804C131.166 12.804 131.595 12.6307 131.847 12.284C132.098 11.9373 132.224 11.413 132.224 10.711V10.503C132.224 9.74033 132.102 9.15967 131.86 8.761C131.626 8.36233 131.184 8.163 130.534 8.163C130.04 8.163 129.658 8.371 129.39 8.787C129.121 9.19433 128.987 9.77067 128.987 10.516C128.987 11.2613 129.121 11.829 129.39 12.219C129.658 12.609 130.048 12.804 130.56 12.804ZM145.773 13.168C145.773 12.804 145.869 12.5483 146.059 12.401C146.25 12.245 146.484 12.167 146.761 12.167C147.039 12.167 147.273 12.2407 147.463 12.388C147.663 12.5353 147.762 12.7953 147.762 13.168C147.762 13.5233 147.663 13.779 147.463 13.935C147.273 14.091 147.039 14.169 146.761 14.169C146.484 14.169 146.25 14.091 146.059 13.935C145.869 13.779 145.773 13.5233 145.773 13.168ZM159.535 13.168C159.535 12.804 159.63 12.5483 159.821 12.401C160.012 12.245 160.246 12.167 160.523 12.167C160.8 12.167 161.034 12.2407 161.225 12.388C161.424 12.5353 161.524 12.7953 161.524 13.168C161.524 13.5233 161.424 13.779 161.225 13.935C161.034 14.091 160.8 14.169 160.523 14.169C160.246 14.169 160.012 14.091 159.821 13.935C159.63 13.779 159.535 13.5233 159.535 13.168ZM173.297 13.168C173.297 12.804 173.392 12.5483 173.583 12.401C173.773 12.245 174.007 12.167 174.285 12.167C174.562 12.167 174.796 12.2407 174.987 12.388C175.186 12.5353 175.286 12.7953 175.286 13.168C175.286 13.5233 175.186 13.779 174.987 13.935C174.796 14.091 174.562 14.169 174.285 14.169C174.007 14.169 173.773 14.091 173.583 13.935C173.392 13.779 173.297 13.5233 173.297 13.168ZM187.059 13.168C187.059 12.804 187.154 12.5483 187.345 12.401C187.535 12.245 187.769 12.167 188.047 12.167C188.324 12.167 188.558 12.2407 188.749 12.388C188.948 12.5353 189.048 12.7953 189.048 13.168C189.048 13.5233 188.948 13.779 188.749 13.935C188.558 14.091 188.324 14.169 188.047 14.169C187.769 14.169 187.535 14.091 187.345 13.935C187.154 13.779 187.059 13.5233 187.059 13.168ZM200.82 13.168C200.82 12.804 200.916 12.5483 201.106 12.401C201.297 12.245 201.531 12.167 201.808 12.167C202.086 12.167 202.32 12.2407 202.51 12.388C202.71 12.5353 202.809 12.7953 202.809 13.168C202.809 13.5233 202.71 13.779 202.51 13.935C202.32 14.091 202.086 14.169 201.808 14.169C201.531 14.169 201.297 14.091 201.106 13.935C200.916 13.779 200.82 13.5233 200.82 13.168ZM214.582 13.168C214.582 12.804 214.677 12.5483 214.868 12.401C215.059 12.245 215.293 12.167 215.57 12.167C215.847 12.167 216.081 12.2407 216.272 12.388C216.471 12.5353 216.571 12.7953 216.571 13.168C216.571 13.5233 216.471 13.779 216.272 13.935C216.081 14.091 215.847 14.169 215.57 14.169C215.293 14.169 215.059 14.091 214.868 13.935C214.677 13.779 214.582 13.5233 214.582 13.168ZM228.344 13.168C228.344 12.804 228.439 12.5483 228.63 12.401C228.82 12.245 229.054 12.167 229.332 12.167C229.609 12.167 229.843 12.2407 230.034 12.388C230.233 12.5353 230.333 12.7953 230.333 13.168C230.333 13.5233 230.233 13.779 230.034 13.935C229.843 14.091 229.609 14.169 229.332 14.169C229.054 14.169 228.82 14.091 228.63 13.935C228.439 13.779 228.344 13.5233 228.344 13.168Z" fill="black" fill-opacity="0.5"/>
</svg>
