<svg width="325" height="179" viewBox="0 0 325 179" fill="none" xmlns="http://www.w3.org/2000/svg">
<path d="M5 26C5 14.9543 13.9543 6 25 6H305C316.046 6 325 14.9543 325 26V159C325 170.046 316.046 179 305 179H25C13.9543 179 5 170.046 5 159V26Z" fill="#B6B6B6"/>
<path d="M20 1H300C310.493 1 319 9.50659 319 20V153C319 163.493 310.493 172 300 172H20C9.50659 172 1 163.493 1 153V20C1 9.50659 9.50659 1 20 1Z" fill="white" stroke="black" stroke-width="2"/>
<path d="M67.5 94.5662C58.9216 103.145 45.0122 103.145 36.4338 94.5662C27.8554 85.9878 27.8554 72.0784 36.4338 63.5C27.8554 54.9216 27.8554 41.0122 36.4338 32.4338C45.0122 23.8554 58.9216 23.8554 67.5 32.4338C76.0784 23.8554 89.9878 23.8554 98.5662 32.4338C107.145 41.0122 107.145 54.9216 98.5662 63.5C107.145 72.0784 107.145 85.9878 98.5662 94.5662C89.9878 103.145 76.0784 103.145 67.5 94.5662Z" fill="black" stroke="black" stroke-linecap="round" stroke-linejoin="round"/>
</svg>
