<svg width="245" height="66" viewBox="0 0 245 66" fill="none" xmlns="http://www.w3.org/2000/svg">
<path d="M32 57.6814C24.9085 64.7729 13.4101 64.7729 6.31859 57.6814C-0.772865 50.5899 -0.772865 39.0915 6.31859 32C-0.772865 24.9085 -0.772865 13.4101 6.31859 6.31859C13.4101 -0.772865 24.9085 -0.772865 32 6.31859C39.0915 -0.772865 50.5899 -0.772865 57.6814 6.31859C64.7729 13.4101 64.7729 24.9085 57.6814 32C64.7729 39.0915 64.7729 50.5899 57.6814 57.6814C50.5899 64.7729 39.0915 64.7729 32 57.6814Z" fill="black" stroke="black" stroke-linecap="round" stroke-linejoin="round"/>
<path d="M70.1133 34.2305V29.7383C71.4414 29.7122 72.431 29.4128 73.082 28.8398C73.7461 28.2669 74.1172 27.3685 74.1953 26.1445C72.763 25.9492 71.6367 25.4219 70.8164 24.5625C69.9961 23.6901 69.5859 22.5768 69.5859 21.2227C69.5859 19.7643 70.0547 18.5859 70.9922 17.6875C71.9427 16.7891 73.1732 16.3398 74.6836 16.3398C76.5977 16.3398 78.056 16.9648 79.0586 18.2148C80.0612 19.4518 80.5625 21.2682 80.5625 23.6641C80.5625 26.9453 79.6576 29.5299 77.8477 31.418C76.0378 33.293 73.4596 34.2305 70.1133 34.2305ZM94.5469 48.3516C93.2188 48.3516 91.9297 48.1953 90.6797 47.8828C89.4297 47.5703 88.3229 47.1211 87.3594 46.5352L86.7539 48H82.457V40.6562H87.457C87.7565 41.6719 88.2773 42.4727 89.0195 43.0586C89.7617 43.6445 90.569 43.9375 91.4414 43.9375C92.5872 43.9375 93.1602 43.5078 93.1602 42.6484C93.1602 42.0234 92.8997 41.5417 92.3789 41.2031C91.8711 40.8646 91.207 40.5781 90.3867 40.3438C89.5794 40.1094 88.7201 39.8555 87.8086 39.582C86.8971 39.3086 86.0312 38.9375 85.2109 38.4688C84.4036 37.987 83.7396 37.3359 83.2188 36.5156C82.7109 35.6823 82.457 34.5951 82.457 33.2539C82.457 32.043 82.776 30.9427 83.4141 29.9531C84.0651 28.9635 85.0417 28.1758 86.3438 27.5898C87.6589 26.9909 89.306 26.6914 91.2852 26.6914C92.5612 26.6914 93.7396 26.8281 94.8203 27.1016C95.9141 27.362 96.9362 27.7852 97.8867 28.3711L98.3555 27.0625H102.652V33.7812H97.6523C97.3138 32.7917 96.8255 32.069 96.1875 31.6133C95.5625 31.1445 94.8854 30.9102 94.1562 30.9102C92.8802 30.9102 92.2422 31.3008 92.2422 32.082C92.2422 32.6289 92.5026 33.0651 93.0234 33.3906C93.5573 33.7031 94.2344 33.9766 95.0547 34.2109C95.888 34.4453 96.7669 34.7122 97.6914 35.0117C98.6159 35.3112 99.4883 35.7148 100.309 36.2227C101.142 36.7305 101.819 37.4076 102.34 38.2539C102.874 39.1003 103.141 40.2005 103.141 41.5547C103.141 43.625 102.392 45.2786 100.895 46.5156C99.4102 47.7396 97.2943 48.3516 94.5469 48.3516ZM130.152 48.3711C129.085 48.3711 128.004 48.2018 126.91 47.8633C125.829 47.5117 124.807 46.9974 123.844 46.3203L123.062 48.0195L115.68 48V24.1328H113.141V18.8008L125.055 17.5312V29.1523C127.06 27.5247 129.182 26.7109 131.422 26.7109C133.154 26.7109 134.664 27.1536 135.953 28.0391C137.255 28.9245 138.264 30.1745 138.98 31.7891C139.697 33.4036 140.055 35.3047 140.055 37.4922C140.055 39.7188 139.658 41.6458 138.863 43.2734C138.069 44.901 136.93 46.1576 135.445 47.043C133.974 47.9284 132.21 48.3711 130.152 48.3711ZM127.711 42.5312C128.727 42.5312 129.495 42.0885 130.016 41.2031C130.549 40.3177 130.816 39.0872 130.816 37.5117C130.816 35.9492 130.562 34.7318 130.055 33.8594C129.547 32.987 128.831 32.5508 127.906 32.5508C127.424 32.5508 126.917 32.6354 126.383 32.8047C125.849 32.974 125.406 33.1888 125.055 33.4492V41.7695C125.823 42.2773 126.708 42.5312 127.711 42.5312ZM154.098 48.3516C151.65 48.3516 149.534 47.9154 147.75 47.043C145.979 46.1706 144.612 44.9271 143.648 43.3125C142.698 41.6979 142.223 39.7773 142.223 37.5508C142.223 35.3112 142.698 33.3841 143.648 31.7695C144.612 30.1549 145.979 28.9115 147.75 28.0391C149.534 27.1536 151.65 26.7109 154.098 26.7109C156.546 26.7109 158.655 27.1536 160.426 28.0391C162.21 28.9115 163.577 30.1549 164.527 31.7695C165.491 33.3841 165.973 35.3112 165.973 37.5508C165.973 39.7773 165.491 41.6979 164.527 43.3125C163.577 44.9271 162.21 46.1706 160.426 47.043C158.655 47.9154 156.546 48.3516 154.098 48.3516ZM154.098 42.668C155.855 42.668 156.734 40.9557 156.734 37.5312C156.734 34.1068 155.855 32.3945 154.098 32.3945C152.34 32.3945 151.461 34.1068 151.461 37.5312C151.461 40.9557 152.34 42.668 154.098 42.668ZM175.23 48.3516C173.889 48.3516 172.691 48.0846 171.637 47.5508C170.595 47.0039 169.775 46.2552 169.176 45.3047C168.59 44.3542 168.297 43.2604 168.297 42.0234C168.297 40.0964 169.039 38.5599 170.523 37.4141C172.008 36.2682 173.987 35.6953 176.461 35.6953C177.32 35.6953 178.141 35.7474 178.922 35.8516C179.703 35.9557 180.497 36.1315 181.305 36.3789V35.9492C181.305 34.7643 180.94 33.9049 180.211 33.3711C179.495 32.8372 178.342 32.5703 176.754 32.5703C175.608 32.5703 174.449 32.7201 173.277 33.0195C172.105 33.319 171.038 33.7357 170.074 34.2695L169.547 34.0352V28.332C170.914 27.7982 172.464 27.3945 174.195 27.1211C175.94 26.8477 177.691 26.7109 179.449 26.7109C183.342 26.7109 186.188 27.362 187.984 28.6641C189.781 29.9661 190.68 32.056 190.68 34.9336V42.1406H193.219V48H182.555L181.598 44.9336C180.986 46.0013 180.113 46.8411 178.98 47.4531C177.861 48.0521 176.611 48.3516 175.23 48.3516ZM179.312 43.3516C179.664 43.3516 180.029 43.293 180.406 43.1758C180.797 43.0456 181.096 42.8763 181.305 42.668V39.4062C180.979 39.263 180.647 39.1654 180.309 39.1133C179.983 39.0612 179.677 39.0352 179.391 39.0352C178.727 39.0352 178.167 39.2305 177.711 39.6211C177.268 40.0117 177.047 40.5326 177.047 41.1836C177.047 41.8477 177.255 42.375 177.672 42.7656C178.089 43.1562 178.635 43.3516 179.312 43.3516ZM195.816 48V42.1406H198.648V33.1758H195.816V27.8438L207.828 26.6914V30.6953C208.596 29.276 209.658 28.2409 211.012 27.5898C212.366 26.9388 213.661 26.6133 214.898 26.6133V35.0117C213.727 34.6081 212.652 34.4062 211.676 34.4062C211.025 34.4062 210.341 34.5234 209.625 34.7578C208.909 34.9792 208.375 35.2852 208.023 35.6758V42.1406H212.516V48H195.816ZM225.543 48.3516C223.655 48.3516 222.027 47.9023 220.66 47.0039C219.293 46.1055 218.245 44.8424 217.516 43.2148C216.786 41.5742 216.422 39.6667 216.422 37.4922C216.422 35.3047 216.78 33.4036 217.496 31.7891C218.212 30.1745 219.215 28.9245 220.504 28.0391C221.806 27.1536 223.323 26.7109 225.055 26.7109C227.294 26.7109 229.417 27.5247 231.422 29.1523V24.1328H228.004V18.8008L240.797 17.5312V42.1406H243.531V48H231.617V45.8125C230.81 46.5807 229.872 47.1992 228.805 47.668C227.737 48.1237 226.65 48.3516 225.543 48.3516ZM228.57 42.5117C229.065 42.5117 229.573 42.4336 230.094 42.2773C230.628 42.1211 231.07 41.9193 231.422 41.6719V33.4492C231.07 33.1888 230.628 32.974 230.094 32.8047C229.573 32.6354 229.065 32.5508 228.57 32.5508C227.659 32.5508 226.943 32.987 226.422 33.8594C225.914 34.7318 225.66 35.9492 225.66 37.5117C225.66 39.0742 225.914 40.2982 226.422 41.1836C226.943 42.069 227.659 42.5117 228.57 42.5117Z" fill="black"/>
</svg>
