<svg width="512" height="76" viewBox="0 0 512 76" fill="none" xmlns="http://www.w3.org/2000/svg">
<path d="M41.5467 16.3201C42.749 16.3201 43.9021 16.7977 44.7522 17.6479C45.6024 18.498 46.08 19.6511 46.08 20.8534V24.5867C46.08 25.5163 45.7942 26.4233 45.2615 27.185C44.7287 27.9467 43.9747 28.5262 43.1015 28.845C42.2284 29.1638 41.2784 29.2065 40.3802 28.9673C39.482 28.7281 38.679 28.2186 38.08 27.5078C37.4811 28.2186 36.6781 28.7281 35.7799 28.9673C34.8816 29.2065 33.9316 29.1638 33.0585 28.845C32.1854 28.5262 31.4313 27.9467 30.8986 27.185C30.3658 26.4233 30.08 25.5163 30.08 24.5867V20.8534C30.08 19.9239 30.3658 19.0168 30.8986 18.2552C31.4313 17.4935 32.1854 16.914 33.0585 16.5952C33.9316 16.2764 34.8816 16.2337 35.7799 16.4728C36.6781 16.712 37.4811 17.2215 38.08 17.9323C38.5051 17.4268 39.0357 17.0204 39.6346 16.7419C40.2335 16.4633 40.8862 16.3194 41.5467 16.3201ZM38.696 18.8801C38.993 19.4955 39.1471 20.1701 39.1467 20.8534V24.5867C39.1467 25.2939 38.9845 25.9633 38.696 26.5601C39.1165 27.1677 39.7202 27.6251 40.4189 27.8655C41.1177 28.1059 41.875 28.1167 42.5803 27.8964C43.2856 27.6761 43.9021 27.2361 44.3398 26.6407C44.7775 26.0453 45.0135 25.3257 45.0134 24.5867V24.0534C45.0134 24.2985 44.9651 24.5413 44.8713 24.7677C44.7774 24.9942 44.64 25.2 44.4666 25.3733C44.2933 25.5467 44.0875 25.6842 43.861 25.778C43.6346 25.8718 43.3918 25.9201 43.1467 25.9201C42.9015 25.9201 42.6588 25.8718 42.4323 25.778C42.2059 25.6842 42.0001 25.5467 41.8268 25.3733C41.6534 25.2 41.5159 24.9942 41.4221 24.7677C41.3283 24.5413 41.28 24.2985 41.28 24.0534V21.3867C41.28 21.1416 41.3283 20.8989 41.4221 20.6724C41.5159 20.4459 41.6534 20.2401 41.8268 20.0668C42.0001 19.8935 42.2059 19.756 42.4323 19.6622C42.6588 19.5684 42.9015 19.5201 43.1467 19.5201C43.3918 19.5201 43.6346 19.5684 43.861 19.6622C44.0875 19.756 44.2933 19.8935 44.4666 20.0668C44.64 20.2401 44.7774 20.4459 44.8713 20.6724C44.9651 20.8989 45.0134 21.1416 45.0134 21.3867V20.8534C45.0135 20.1145 44.7775 19.3948 44.3398 18.7994C43.9021 18.204 43.2856 17.7641 42.5803 17.5438C41.875 17.3234 41.1177 17.3343 40.4189 17.5747C39.7202 17.815 39.1165 18.2724 38.696 18.8801ZM38.08 20.8534C38.08 19.934 37.7148 19.0522 37.0647 18.4021C36.4145 17.752 35.5328 17.3867 34.6133 17.3867C33.6939 17.3867 32.8122 17.752 32.162 18.4021C31.5119 19.0522 31.1467 19.934 31.1467 20.8534V24.5867C31.1467 25.5062 31.5119 26.3879 32.162 27.038C32.8122 27.6882 33.6939 28.0534 34.6133 28.0534C35.5328 28.0534 36.4145 27.6882 37.0647 27.038C37.7148 26.3879 38.08 25.5062 38.08 24.5867V24.0534C38.08 24.5485 37.8834 25.0233 37.5333 25.3733C37.1832 25.7234 36.7084 25.9201 36.2133 25.9201C35.7183 25.9201 35.2435 25.7234 34.8934 25.3733C34.5433 25.0233 34.3467 24.5485 34.3467 24.0534V21.3867C34.3467 20.8917 34.5433 20.4169 34.8934 20.0668C35.2435 19.7167 35.7183 19.5201 36.2133 19.5201C36.7084 19.5201 37.1832 19.7167 37.5333 20.0668C37.8834 20.4169 38.08 20.8917 38.08 21.3867V20.8534ZM41.9861 21.5793C42.184 21.7446 42.5141 21.6737 42.7237 21.4225C42.9333 21.1707 42.9424 20.8331 42.7445 20.6683C42.5461 20.503 42.216 20.5734 42.0064 20.8251C41.7968 21.0769 41.7877 21.4145 41.9861 21.5793ZM35.0421 20.8251C34.8325 21.0769 34.8235 21.4145 35.0208 21.5793C35.2192 21.7446 35.5499 21.6737 35.7589 21.4225C35.9685 21.1707 35.9776 20.8331 35.7797 20.6683C35.5813 20.503 35.2512 20.5734 35.0416 20.8251" fill="black"/>
<path fill-rule="evenodd" clip-rule="evenodd" d="M29.99 2.97002e-06C28.6062 -0.000518031 27.2398 0.309124 25.9914 0.906161C24.743 1.5032 23.6443 2.37245 22.776 3.45C21.1822 2.59842 19.4031 2.15262 17.596 2.152C11.05 2.152 6.182 7.7 6.292 13.842C2.572 15.716 2.38419e-07 19.538 2.38419e-07 24.01C2.38419e-07 28.464 1.92 31.228 3.948 32.842C4.78 33.504 5.604 33.956 6.27 34.26C6.214 40.366 11.07 45.848 17.576 45.848C19.468 45.848 21.224 45.372 22.766 44.554C23.6342 45.63 24.7324 46.4978 25.9798 47.0939C27.2273 47.6901 28.5924 47.9993 29.975 47.9989C31.3575 47.9985 32.7225 47.6885 33.9696 47.0917C35.2167 46.4949 36.3144 45.6264 37.182 44.55C38.7758 45.4016 40.5549 45.8474 42.362 45.848C48.906 45.848 53.774 40.308 53.668 34.168C57.408 32.308 60 28.488 60 24.01C60 19.556 58.08 16.792 56.052 15.178C55.3385 14.6127 54.5587 14.1366 53.73 13.76C53.786 7.654 48.93 2.172 42.424 2.172C40.613 2.17003 38.8296 2.6152 37.232 3.468C36.3616 2.38456 35.259 1.51044 34.0055 0.91019C32.752 0.309942 31.3798 -0.00110884 29.99 2.97002e-06ZM25.196 7.068C25.6206 6.15362 26.2971 5.3793 27.1462 4.83588C27.9954 4.29246 28.9819 4.0025 29.99 4C32.114 4 33.942 5.24 34.832 7.108C34.962 7.3805 35.1521 7.62003 35.3878 7.80861C35.6236 7.9972 35.8991 8.12996 36.1935 8.19692C36.4879 8.26388 36.7936 8.26332 37.0878 8.19527C37.382 8.12722 37.6569 7.99346 37.892 7.804C39.1688 6.75293 40.7702 6.17628 42.424 6.172C46.914 6.172 50.324 10.34 49.644 14.78C49.5886 15.1396 49.6323 15.5074 49.7705 15.844C49.9086 16.1805 50.136 16.4731 50.428 16.69C50.594 16.814 50.744 16.886 50.784 16.904C50.89 16.954 50.984 16.988 51.016 17L51.204 17.064L51.252 17.08C51.4067 17.1293 51.6027 17.2027 51.84 17.3C52.32 17.5 52.944 17.816 53.56 18.306C54.724 19.234 56 20.886 56 24.01C56 27.25 53.888 29.996 50.92 30.984C50.4701 31.134 50.0882 31.439 49.8424 31.8446C49.5966 32.2501 49.5029 32.7298 49.578 33.198C50.286 37.648 46.87 41.848 42.364 41.848C40.666 41.848 39.112 41.23 37.818 40.208C37.5813 40.0205 37.3052 39.8891 37.0105 39.8236C36.7158 39.758 36.41 39.7601 36.1162 39.8295C35.8223 39.899 35.548 40.0341 35.3139 40.2247C35.0797 40.4153 34.8917 40.6564 34.764 40.93C34.3397 41.8448 33.6633 42.6195 32.8142 43.1633C31.965 43.7071 30.9783 43.9973 29.97 44C27.866 44 26.042 42.758 25.17 40.92C25.0407 40.6469 24.8513 40.4066 24.6158 40.2172C24.3804 40.0278 24.1051 39.8942 23.8106 39.8264C23.5161 39.7587 23.2101 39.7585 22.9156 39.826C22.621 39.8935 22.3456 40.0268 22.11 40.216C20.8326 41.2675 19.2305 41.8442 17.576 41.848C13.086 41.848 9.676 37.68 10.356 33.24C10.4114 32.8804 10.3677 32.5126 10.2295 32.176C10.0914 31.8395 9.86404 31.547 9.572 31.33C9.46108 31.2465 9.34177 31.1748 9.216 31.116C9.14075 31.0792 9.06327 31.0471 8.984 31.02L8.796 30.956L8.748 30.94C8.5492 30.8744 8.35305 30.801 8.16 30.72C7.54281 30.466 6.96394 30.1274 6.44 29.714C5.278 28.784 4 27.134 4 24.01C4 20.762 6.1 18.016 9.052 17.01C9.49807 16.8579 9.8761 16.5532 10.1194 16.1496C10.3628 15.746 10.4558 15.2695 10.382 14.804C9.674 10.352 13.088 6.152 17.596 6.152C19.294 6.152 20.848 6.77 22.142 7.792C22.3788 7.97939 22.655 8.11072 22.9498 8.17612C23.2447 8.24153 23.5505 8.23932 23.8443 8.16965C24.1382 8.09999 24.4125 7.96469 24.6466 7.77389C24.8806 7.5831 25.0685 7.34176 25.196 7.068ZM7 44C6.08075 44 5.1705 44.1811 4.32122 44.5328C3.47194 44.8846 2.70026 45.4002 2.05025 46.0503C1.40024 46.7003 0.884626 47.4719 0.532843 48.3212C0.18106 49.1705 0 50.0807 0 51C0 51.9193 0.18106 52.8295 0.532843 53.6788C0.884626 54.5281 1.40024 55.2997 2.05025 55.9498C2.70026 56.5998 3.47194 57.1154 4.32122 57.4672C5.1705 57.8189 6.08075 58 7 58C8.85652 58 10.637 57.2625 11.9497 55.9498C13.2625 54.637 14 52.8565 14 51C14 49.1435 13.2625 47.363 11.9497 46.0503C10.637 44.7375 8.85652 44 7 44ZM4 51C4 50.2044 4.31607 49.4413 4.87868 48.8787C5.44129 48.3161 6.20435 48 7 48C7.79565 48 8.55871 48.3161 9.12132 48.8787C9.68393 49.4413 10 50.2044 10 51C10 51.7957 9.68393 52.5587 9.12132 53.1213C8.55871 53.6839 7.79565 54 7 54C6.20435 54 5.44129 53.6839 4.87868 53.1213C4.31607 52.5587 4 51.7957 4 51Z" fill="black"/>
<path d="M78.2227 58.3516C76.8815 58.3516 75.6836 58.0846 74.6289 57.5508C73.5872 57.0039 72.7669 56.2552 72.168 55.3047C71.582 54.3542 71.2891 53.2604 71.2891 52.0234C71.2891 50.0964 72.0312 48.5599 73.5156 47.4141C75 46.2682 76.9792 45.6953 79.4531 45.6953C80.3125 45.6953 81.1328 45.7474 81.9141 45.8516C82.6953 45.9557 83.4896 46.1315 84.2969 46.3789V45.9492C84.2969 44.7643 83.9323 43.9049 83.2031 43.3711C82.487 42.8372 81.3346 42.5703 79.7461 42.5703C78.6003 42.5703 77.4414 42.7201 76.2695 43.0195C75.0977 43.319 74.0299 43.7357 73.0664 44.2695L72.5391 44.0352V38.332C73.9062 37.7982 75.4557 37.3945 77.1875 37.1211C78.9323 36.8477 80.6836 36.7109 82.4414 36.7109C86.3346 36.7109 89.1797 37.362 90.9766 38.6641C92.7734 39.9661 93.6719 42.056 93.6719 44.9336V52.1406H96.2109V58H85.5469L84.5898 54.9336C83.9779 56.0013 83.1055 56.8411 81.9727 57.4531C80.8529 58.0521 79.6029 58.3516 78.2227 58.3516ZM82.3047 53.3516C82.6562 53.3516 83.0208 53.293 83.3984 53.1758C83.7891 53.0456 84.0885 52.8763 84.2969 52.668V49.4062C83.9714 49.263 83.6393 49.1654 83.3008 49.1133C82.9753 49.0612 82.6693 49.0352 82.3828 49.0352C81.7188 49.0352 81.1589 49.2305 80.7031 49.6211C80.2604 50.0117 80.0391 50.5326 80.0391 51.1836C80.0391 51.8477 80.2474 52.375 80.6641 52.7656C81.0807 53.1562 81.6276 53.3516 82.3047 53.3516ZM100.809 58V52.1406H103.641V43.1758H100.809V37.8438L112.82 36.6914V39.3477C113.628 38.5013 114.637 37.8503 115.848 37.3945C117.059 36.9258 118.361 36.6914 119.754 36.6914C122.111 36.6914 123.836 37.362 124.93 38.7031C126.036 40.0312 126.59 42.0365 126.59 44.7188V52.1406H129.324V58H117.215V44.7188C117.215 43.9635 117.052 43.4167 116.727 43.0781C116.401 42.7266 115.971 42.5508 115.438 42.5508C114.995 42.5508 114.552 42.681 114.109 42.9414C113.68 43.2018 113.315 43.5599 113.016 44.0156V52.1406H114.773V58H100.809ZM145.641 58.3516C144.312 58.3516 143.023 58.1953 141.773 57.8828C140.523 57.5703 139.417 57.1211 138.453 56.5352L137.848 58H133.551V50.6562H138.551C138.85 51.6719 139.371 52.4727 140.113 53.0586C140.855 53.6445 141.663 53.9375 142.535 53.9375C143.681 53.9375 144.254 53.5078 144.254 52.6484C144.254 52.0234 143.993 51.5417 143.473 51.2031C142.965 50.8646 142.301 50.5781 141.48 50.3438C140.673 50.1094 139.814 49.8555 138.902 49.582C137.991 49.3086 137.125 48.9375 136.305 48.4688C135.497 47.987 134.833 47.3359 134.312 46.5156C133.805 45.6823 133.551 44.5951 133.551 43.2539C133.551 42.043 133.87 40.9427 134.508 39.9531C135.159 38.9635 136.135 38.1758 137.438 37.5898C138.753 36.9909 140.4 36.6914 142.379 36.6914C143.655 36.6914 144.833 36.8281 145.914 37.1016C147.008 37.362 148.03 37.7852 148.98 38.3711L149.449 37.0625H153.746V43.7812H148.746C148.408 42.7917 147.919 42.069 147.281 41.6133C146.656 41.1445 145.979 40.9102 145.25 40.9102C143.974 40.9102 143.336 41.3008 143.336 42.082C143.336 42.6289 143.596 43.0651 144.117 43.3906C144.651 43.7031 145.328 43.9766 146.148 44.2109C146.982 44.4453 147.861 44.7122 148.785 45.0117C149.71 45.3112 150.582 45.7148 151.402 46.2227C152.236 46.7305 152.913 47.4076 153.434 48.2539C153.967 49.1003 154.234 50.2005 154.234 51.5547C154.234 53.625 153.486 55.2786 151.988 56.5156C150.504 57.7396 148.388 58.3516 145.641 58.3516ZM165.102 58L159.848 42.9219H157.992V37.0625H172.113V42.9219H169.77L172.113 51.0078L176.645 37.0625H182.855L187.191 51.9648L190.121 42.9219H187.777V37.0625H197.68V42.9219H195.824L190.57 58H180.512L177.836 50.0898L175.16 58H165.102ZM213.332 58.3516C209.465 58.3516 206.431 57.3815 204.23 55.4414C202.043 53.4883 200.949 50.7865 200.949 47.3359C200.949 45.1615 201.424 43.2799 202.375 41.6914C203.339 40.1029 204.68 38.8789 206.398 38.0195C208.117 37.1471 210.116 36.7109 212.395 36.7109C214.621 36.7109 216.529 37.1211 218.117 37.9414C219.706 38.7487 220.917 39.8815 221.75 41.3398C222.596 42.7852 223.02 44.4583 223.02 46.3594C223.02 46.8021 223 47.2318 222.961 47.6484C222.922 48.0521 222.876 48.4232 222.824 48.7617H210.266C210.487 50.0898 211.086 51.0469 212.062 51.6328C213.052 52.2057 214.257 52.4922 215.676 52.4922C216.874 52.4922 218.013 52.2839 219.094 51.8672C220.188 51.4375 221.112 50.9036 221.867 50.2656L222.395 50.5V56.1055C221.77 56.5352 220.962 56.9193 219.973 57.2578C218.983 57.5964 217.909 57.8633 216.75 58.0586C215.604 58.2539 214.465 58.3516 213.332 58.3516ZM212.902 41.5156C212.03 41.5156 211.372 41.8542 210.93 42.5312C210.487 43.2083 210.24 44.1523 210.188 45.3633H215.617C215.565 44.1523 215.318 43.2083 214.875 42.5312C214.445 41.8542 213.788 41.5156 212.902 41.5156ZM227.52 58V52.1406H230.352V43.1758H227.52V37.8438L239.531 36.6914V40.6953C240.299 39.276 241.361 38.2409 242.715 37.5898C244.069 36.9388 245.365 36.6133 246.602 36.6133V45.0117C245.43 44.6081 244.355 44.4062 243.379 44.4062C242.728 44.4062 242.044 44.5234 241.328 44.7578C240.612 44.9792 240.078 45.2852 239.727 45.6758V52.1406H244.219V58H227.52ZM267.848 58.3516C266.507 58.3516 265.309 58.0846 264.254 57.5508C263.212 57.0039 262.392 56.2552 261.793 55.3047C261.207 54.3542 260.914 53.2604 260.914 52.0234C260.914 50.0964 261.656 48.5599 263.141 47.4141C264.625 46.2682 266.604 45.6953 269.078 45.6953C269.938 45.6953 270.758 45.7474 271.539 45.8516C272.32 45.9557 273.115 46.1315 273.922 46.3789V45.9492C273.922 44.7643 273.557 43.9049 272.828 43.3711C272.112 42.8372 270.96 42.5703 269.371 42.5703C268.225 42.5703 267.066 42.7201 265.895 43.0195C264.723 43.319 263.655 43.7357 262.691 44.2695L262.164 44.0352V38.332C263.531 37.7982 265.081 37.3945 266.812 37.1211C268.557 36.8477 270.309 36.7109 272.066 36.7109C275.96 36.7109 278.805 37.362 280.602 38.6641C282.398 39.9661 283.297 42.056 283.297 44.9336V52.1406H285.836V58H275.172L274.215 54.9336C273.603 56.0013 272.73 56.8411 271.598 57.4531C270.478 58.0521 269.228 58.3516 267.848 58.3516ZM271.93 53.3516C272.281 53.3516 272.646 53.293 273.023 53.1758C273.414 53.0456 273.714 52.8763 273.922 52.668V49.4062C273.596 49.263 273.264 49.1654 272.926 49.1133C272.6 49.0612 272.294 49.0352 272.008 49.0352C271.344 49.0352 270.784 49.2305 270.328 49.6211C269.885 50.0117 269.664 50.5326 269.664 51.1836C269.664 51.8477 269.872 52.375 270.289 52.7656C270.706 53.1562 271.253 53.3516 271.93 53.3516ZM312.512 65.7734V59.9141H315.344V55.9102C313.339 57.5378 311.216 58.3516 308.977 58.3516C307.245 58.3516 305.728 57.9089 304.426 57.0234C303.137 56.138 302.134 54.888 301.418 53.2734C300.702 51.6458 300.344 49.7448 300.344 47.5703C300.344 45.3438 300.741 43.4232 301.535 41.8086C302.329 40.181 303.469 38.9245 304.953 38.0391C306.438 37.1536 308.202 36.7109 310.246 36.7109C311.314 36.7109 312.388 36.8867 313.469 37.2383C314.562 37.5768 315.591 38.0846 316.555 38.7617L317.336 37.0625H324.719V59.9141H327.551V65.7734H312.512ZM312.492 52.5117C312.987 52.5117 313.495 52.4271 314.016 52.2578C314.549 52.0755 314.992 51.8607 315.344 51.6133V43.3125C314.589 42.8047 313.703 42.5508 312.688 42.5508C311.672 42.5508 310.897 42.9935 310.363 43.8789C309.842 44.7643 309.582 45.9883 309.582 47.5508C309.582 49.1133 309.836 50.3307 310.344 51.2031C310.865 52.0755 311.581 52.5117 312.492 52.5117ZM340.352 58.3711C335.534 58.3711 333.125 55.6628 333.125 50.2461V43.1758H330.391V37.8438L342.5 36.6914V50.2656C342.5 51.0599 342.676 51.6328 343.027 51.9844C343.379 52.3359 343.828 52.5117 344.375 52.5117C345.352 52.5117 346.107 52.0104 346.641 51.0078V43.1758H344.883V37.8438L356.016 36.6914V52.1406H358.75V58H346.836V55.7148C346.055 56.5482 345.124 57.1992 344.043 57.668C342.975 58.1367 341.745 58.3711 340.352 58.3711ZM375.105 58.3516C371.238 58.3516 368.204 57.3815 366.004 55.4414C363.816 53.4883 362.723 50.7865 362.723 47.3359C362.723 45.1615 363.198 43.2799 364.148 41.6914C365.112 40.1029 366.453 38.8789 368.172 38.0195C369.891 37.1471 371.889 36.7109 374.168 36.7109C376.395 36.7109 378.302 37.1211 379.891 37.9414C381.479 38.7487 382.69 39.8815 383.523 41.3398C384.37 42.7852 384.793 44.4583 384.793 46.3594C384.793 46.8021 384.773 47.2318 384.734 47.6484C384.695 48.0521 384.65 48.4232 384.598 48.7617H372.039C372.26 50.0898 372.859 51.0469 373.836 51.6328C374.826 52.2057 376.03 52.4922 377.449 52.4922C378.647 52.4922 379.786 52.2839 380.867 51.8672C381.961 51.4375 382.885 50.9036 383.641 50.2656L384.168 50.5V56.1055C383.543 56.5352 382.736 56.9193 381.746 57.2578C380.757 57.5964 379.682 57.8633 378.523 58.0586C377.378 58.2539 376.238 58.3516 375.105 58.3516ZM374.676 41.5156C373.803 41.5156 373.146 41.8542 372.703 42.5312C372.26 43.2083 372.013 44.1523 371.961 45.3633H377.391C377.339 44.1523 377.091 43.2083 376.648 42.5312C376.219 41.8542 375.561 41.5156 374.676 41.5156ZM401.227 58.3516C399.898 58.3516 398.609 58.1953 397.359 57.8828C396.109 57.5703 395.003 57.1211 394.039 56.5352L393.434 58H389.137V50.6562H394.137C394.436 51.6719 394.957 52.4727 395.699 53.0586C396.441 53.6445 397.249 53.9375 398.121 53.9375C399.267 53.9375 399.84 53.5078 399.84 52.6484C399.84 52.0234 399.579 51.5417 399.059 51.2031C398.551 50.8646 397.887 50.5781 397.066 50.3438C396.259 50.1094 395.4 49.8555 394.488 49.582C393.577 49.3086 392.711 48.9375 391.891 48.4688C391.083 47.987 390.419 47.3359 389.898 46.5156C389.391 45.6823 389.137 44.5951 389.137 43.2539C389.137 42.043 389.456 40.9427 390.094 39.9531C390.745 38.9635 391.721 38.1758 393.023 37.5898C394.339 36.9909 395.986 36.6914 397.965 36.6914C399.241 36.6914 400.419 36.8281 401.5 37.1016C402.594 37.362 403.616 37.7852 404.566 38.3711L405.035 37.0625H409.332V43.7812H404.332C403.993 42.7917 403.505 42.069 402.867 41.6133C402.242 41.1445 401.565 40.9102 400.836 40.9102C399.56 40.9102 398.922 41.3008 398.922 42.082C398.922 42.6289 399.182 43.0651 399.703 43.3906C400.237 43.7031 400.914 43.9766 401.734 44.2109C402.568 44.4453 403.447 44.7122 404.371 45.0117C405.296 45.3112 406.168 45.7148 406.988 46.2227C407.822 46.7305 408.499 47.4076 409.02 48.2539C409.553 49.1003 409.82 50.2005 409.82 51.5547C409.82 53.625 409.072 55.2786 407.574 56.5156C406.09 57.7396 403.974 58.3516 401.227 58.3516ZM425.883 58.3516C422.797 58.3516 420.414 57.6484 418.734 56.2422C417.055 54.8229 416.215 52.7721 416.215 50.0898V42.9219H412.992V37.5898L416.215 37.2773V32.5898L425.59 30.5391V37.0625H430.316V42.9219H425.59V49.8945C425.59 50.6758 425.779 51.2878 426.156 51.7305C426.547 52.1602 427.133 52.375 427.914 52.375C428.37 52.375 428.754 52.3359 429.066 52.2578C429.392 52.1667 429.698 52.0755 429.984 51.9844L430.512 52.2188V57.8047C429.77 57.974 429.021 58.1042 428.266 58.1953C427.523 58.2995 426.729 58.3516 425.883 58.3516ZM434.543 58V52.1406H437.57V43.1758H434.543V37.8438L446.945 36.6914V52.1406H449.973V58H434.543ZM442.258 35.3828C440.552 35.3828 439.185 34.9727 438.156 34.1523C437.141 33.332 436.633 32.2448 436.633 30.8906C436.633 29.5365 437.141 28.4688 438.156 27.6875C439.172 26.8932 440.546 26.4961 442.277 26.4961C444.048 26.4961 445.422 26.8802 446.398 27.6484C447.388 28.4167 447.883 29.4974 447.883 30.8906C447.883 32.2708 447.375 33.3646 446.359 34.1719C445.357 34.9792 443.99 35.3828 442.258 35.3828ZM465.527 58.3516C463.079 58.3516 460.964 57.9154 459.18 57.043C457.409 56.1706 456.042 54.9271 455.078 53.3125C454.128 51.6979 453.652 49.7773 453.652 47.5508C453.652 45.3112 454.128 43.3841 455.078 41.7695C456.042 40.1549 457.409 38.9115 459.18 38.0391C460.964 37.1536 463.079 36.7109 465.527 36.7109C467.975 36.7109 470.085 37.1536 471.855 38.0391C473.639 38.9115 475.007 40.1549 475.957 41.7695C476.921 43.3841 477.402 45.3112 477.402 47.5508C477.402 49.7773 476.921 51.6979 475.957 53.3125C475.007 54.9271 473.639 56.1706 471.855 57.043C470.085 57.9154 467.975 58.3516 465.527 58.3516ZM465.527 52.668C467.285 52.668 468.164 50.9557 468.164 47.5312C468.164 44.1068 467.285 42.3945 465.527 42.3945C463.77 42.3945 462.891 44.1068 462.891 47.5312C462.891 50.9557 463.77 52.668 465.527 52.668ZM481.902 58V52.1406H484.734V43.1758H481.902V37.8438L493.914 36.6914V39.3477C494.721 38.5013 495.73 37.8503 496.941 37.3945C498.152 36.9258 499.454 36.6914 500.848 36.6914C503.204 36.6914 504.93 37.362 506.023 38.7031C507.13 40.0312 507.684 42.0365 507.684 44.7188V52.1406H510.418V58H498.309V44.7188C498.309 43.9635 498.146 43.4167 497.82 43.0781C497.495 42.7266 497.065 42.5508 496.531 42.5508C496.089 42.5508 495.646 42.681 495.203 42.9414C494.773 43.2018 494.409 43.5599 494.109 44.0156V52.1406H495.867V58H481.902Z" fill="black"/>
</svg>
