<svg width="280" height="245" viewBox="0 0 280 245" fill="none" xmlns="http://www.w3.org/2000/svg">
<path d="M16.8555 227.566C13.7044 227.566 10.9701 226.922 8.65234 225.633C6.34766 224.331 4.5638 222.475 3.30078 220.066C2.05078 217.658 1.42578 214.799 1.42578 211.492C1.42578 208.159 2.05729 205.288 3.32031 202.879C4.58333 200.457 6.38021 198.595 8.71094 197.293C11.0547 195.991 13.8346 195.34 17.0508 195.34C20.2799 195.34 23.0599 195.991 25.3906 197.293C27.7214 198.595 29.5182 200.457 30.7812 202.879C32.0443 205.288 32.6758 208.159 32.6758 211.492C32.6758 213.159 32.474 214.734 32.0703 216.219C31.6797 217.69 31.1198 219.038 30.3906 220.262H33.9062V227H29.4531C27.3177 227 25.5273 226.668 24.082 226.004C21.8815 227.046 19.4727 227.566 16.8555 227.566ZM12.4609 211.434C12.4609 212.124 12.487 212.788 12.5391 213.426C13.0599 212.488 13.8086 211.746 14.7852 211.199C15.7617 210.639 16.888 210.359 18.1641 210.359C19.5573 210.359 20.7292 210.704 21.6797 211.395C21.6797 208.322 21.276 205.997 20.4688 204.422C19.6615 202.833 18.5221 202.039 17.0508 202.039C15.5794 202.039 14.4466 202.833 13.6523 204.422C12.8581 206.01 12.4609 208.348 12.4609 211.434ZM13.6719 217.898C13.6719 218.81 13.9974 219.546 14.6484 220.105C15.2995 220.652 16.1198 220.926 17.1094 220.926C18.112 220.926 18.9388 220.633 19.5898 220.047L19.0234 217.762C18.776 216.72 18.444 215.978 18.0273 215.535C17.6237 215.079 17.0768 214.852 16.3867 214.852C15.5924 214.852 14.9414 215.132 14.4336 215.691C13.9258 216.238 13.6719 216.974 13.6719 217.898ZM45.6641 227.371C40.8464 227.371 38.4375 224.663 38.4375 219.246V212.176H35.7031V206.844L47.8125 205.691V219.266C47.8125 220.06 47.9883 220.633 48.3398 220.984C48.6914 221.336 49.1406 221.512 49.6875 221.512C50.6641 221.512 51.4193 221.01 51.9531 220.008V212.176H50.1953V206.844L61.3281 205.691V221.141H64.0625V227H52.1484V224.715C51.3672 225.548 50.4362 226.199 49.3555 226.668C48.2878 227.137 47.0573 227.371 45.6641 227.371ZM78.418 227.352C74.5508 227.352 71.5169 226.382 69.3164 224.441C67.1289 222.488 66.0352 219.786 66.0352 216.336C66.0352 214.161 66.5104 212.28 67.4609 210.691C68.4245 209.103 69.7656 207.879 71.4844 207.02C73.2031 206.147 75.2018 205.711 77.4805 205.711C79.707 205.711 81.6146 206.121 83.2031 206.941C84.7917 207.749 86.0026 208.882 86.8359 210.34C87.6823 211.785 88.1055 213.458 88.1055 215.359C88.1055 215.802 88.0859 216.232 88.0469 216.648C88.0078 217.052 87.9622 217.423 87.9102 217.762H75.3516C75.5729 219.09 76.1719 220.047 77.1484 220.633C78.138 221.206 79.3424 221.492 80.7617 221.492C81.9596 221.492 83.099 221.284 84.1797 220.867C85.2734 220.438 86.1979 219.904 86.9531 219.266L87.4805 219.5V225.105C86.8555 225.535 86.0482 225.919 85.0586 226.258C84.069 226.596 82.9948 226.863 81.8359 227.059C80.6901 227.254 79.5508 227.352 78.418 227.352ZM77.9883 210.516C77.1159 210.516 76.4583 210.854 76.0156 211.531C75.5729 212.208 75.3255 213.152 75.2734 214.363H80.7031C80.651 213.152 80.4036 212.208 79.9609 211.531C79.5312 210.854 78.8737 210.516 77.9883 210.516ZM102.539 227.352C101.211 227.352 99.9219 227.195 98.6719 226.883C97.4219 226.57 96.3151 226.121 95.3516 225.535L94.7461 227H90.4492V219.656H95.4492C95.7487 220.672 96.2695 221.473 97.0117 222.059C97.7539 222.645 98.5612 222.938 99.4336 222.938C100.579 222.938 101.152 222.508 101.152 221.648C101.152 221.023 100.892 220.542 100.371 220.203C99.8633 219.865 99.1992 219.578 98.3789 219.344C97.5716 219.109 96.7122 218.855 95.8008 218.582C94.8893 218.309 94.0234 217.938 93.2031 217.469C92.3958 216.987 91.7318 216.336 91.2109 215.516C90.7031 214.682 90.4492 213.595 90.4492 212.254C90.4492 211.043 90.7682 209.943 91.4062 208.953C92.0573 207.964 93.0339 207.176 94.3359 206.59C95.651 205.991 97.2982 205.691 99.2773 205.691C100.553 205.691 101.732 205.828 102.812 206.102C103.906 206.362 104.928 206.785 105.879 207.371L106.348 206.062H110.645V212.781H105.645C105.306 211.792 104.818 211.069 104.18 210.613C103.555 210.145 102.878 209.91 102.148 209.91C100.872 209.91 100.234 210.301 100.234 211.082C100.234 211.629 100.495 212.065 101.016 212.391C101.549 212.703 102.227 212.977 103.047 213.211C103.88 213.445 104.759 213.712 105.684 214.012C106.608 214.311 107.48 214.715 108.301 215.223C109.134 215.73 109.811 216.408 110.332 217.254C110.866 218.1 111.133 219.201 111.133 220.555C111.133 222.625 110.384 224.279 108.887 225.516C107.402 226.74 105.286 227.352 102.539 227.352ZM125.195 227.352C122.109 227.352 119.727 226.648 118.047 225.242C116.367 223.823 115.527 221.772 115.527 219.09V211.922H112.305V206.59L115.527 206.277V201.59L124.902 199.539V206.062H129.629V211.922H124.902V218.895C124.902 219.676 125.091 220.288 125.469 220.73C125.859 221.16 126.445 221.375 127.227 221.375C127.682 221.375 128.066 221.336 128.379 221.258C128.704 221.167 129.01 221.076 129.297 220.984L129.824 221.219V226.805C129.082 226.974 128.333 227.104 127.578 227.195C126.836 227.299 126.042 227.352 125.195 227.352ZM131.855 227V221.141H134.883V212.176H131.855V206.844L144.258 205.691V221.141H147.285V227H131.855ZM139.57 204.383C137.865 204.383 136.497 203.973 135.469 203.152C134.453 202.332 133.945 201.245 133.945 199.891C133.945 198.536 134.453 197.469 135.469 196.688C136.484 195.893 137.858 195.496 139.59 195.496C141.361 195.496 142.734 195.88 143.711 196.648C144.701 197.417 145.195 198.497 145.195 199.891C145.195 201.271 144.688 202.365 143.672 203.172C142.669 203.979 141.302 204.383 139.57 204.383ZM160.84 227.352C158.392 227.352 156.276 226.915 154.492 226.043C152.721 225.171 151.354 223.927 150.391 222.312C149.44 220.698 148.965 218.777 148.965 216.551C148.965 214.311 149.44 212.384 150.391 210.77C151.354 209.155 152.721 207.911 154.492 207.039C156.276 206.154 158.392 205.711 160.84 205.711C163.288 205.711 165.397 206.154 167.168 207.039C168.952 207.911 170.319 209.155 171.27 210.77C172.233 212.384 172.715 214.311 172.715 216.551C172.715 218.777 172.233 220.698 171.27 222.312C170.319 223.927 168.952 225.171 167.168 226.043C165.397 226.915 163.288 227.352 160.84 227.352ZM160.84 221.668C162.598 221.668 163.477 219.956 163.477 216.531C163.477 213.107 162.598 211.395 160.84 211.395C159.082 211.395 158.203 213.107 158.203 216.531C158.203 219.956 159.082 221.668 160.84 221.668ZM175.215 227V221.141H178.047V212.176H175.215V206.844L187.227 205.691V208.348C188.034 207.501 189.043 206.85 190.254 206.395C191.465 205.926 192.767 205.691 194.16 205.691C196.517 205.691 198.242 206.362 199.336 207.703C200.443 209.031 200.996 211.036 200.996 213.719V221.141H203.73V227H191.621V213.719C191.621 212.964 191.458 212.417 191.133 212.078C190.807 211.727 190.378 211.551 189.844 211.551C189.401 211.551 188.958 211.681 188.516 211.941C188.086 212.202 187.721 212.56 187.422 213.016V221.141H189.18V227H175.215ZM205.918 227V221.141H208.945V212.176H205.918V206.844L218.32 205.691V221.141H221.348V227H205.918ZM213.633 204.383C211.927 204.383 210.56 203.973 209.531 203.152C208.516 202.332 208.008 201.245 208.008 199.891C208.008 198.536 208.516 197.469 209.531 196.688C210.547 195.893 211.921 195.496 213.652 195.496C215.423 195.496 216.797 195.88 217.773 196.648C218.763 197.417 219.258 198.497 219.258 199.891C219.258 201.271 218.75 202.365 217.734 203.172C216.732 203.979 215.365 204.383 213.633 204.383ZM223.457 227V221.141H226.289V212.176H223.457V206.844L235.469 205.691V208.348C236.276 207.501 237.285 206.85 238.496 206.395C239.707 205.926 241.009 205.691 242.402 205.691C244.759 205.691 246.484 206.362 247.578 207.703C248.685 209.031 249.238 211.036 249.238 213.719V221.141H251.973V227H239.863V213.719C239.863 212.964 239.701 212.417 239.375 212.078C239.049 211.727 238.62 211.551 238.086 211.551C237.643 211.551 237.201 211.681 236.758 211.941C236.328 212.202 235.964 212.56 235.664 213.016V221.141H237.422V227H223.457ZM270.82 221.629C273.359 221.629 275.273 222.143 276.562 223.172C277.865 224.201 278.516 225.665 278.516 227.566C278.516 229.22 277.949 230.613 276.816 231.746C275.697 232.879 274.128 233.732 272.109 234.305C270.091 234.878 267.734 235.164 265.039 235.164C262.37 235.164 260.195 234.923 258.516 234.441C256.849 233.973 255.625 233.341 254.844 232.547C254.076 231.766 253.691 230.913 253.691 229.988C253.691 229.285 253.952 228.647 254.473 228.074C255.007 227.501 255.684 227.085 256.504 226.824C255.566 226.069 255.098 225.079 255.098 223.855C255.098 222.775 255.482 221.87 256.25 221.141C257.031 220.398 258.138 219.852 259.57 219.5C257.826 218.992 256.374 218.198 255.215 217.117C254.069 216.036 253.496 214.663 253.496 212.996C253.496 210.809 254.505 209.051 256.523 207.723C258.542 206.382 261.491 205.711 265.371 205.711C267.415 205.711 269.245 205.971 270.859 206.492L278.984 205.691V211.746H276.523C276.615 212.15 276.66 212.566 276.66 212.996C276.66 215.184 275.618 216.941 273.535 218.27C271.452 219.585 268.483 220.242 264.629 220.242C263.691 220.242 263.223 220.47 263.223 220.926C263.223 221.395 263.691 221.629 264.629 221.629H270.82ZM265.371 209.852C264.577 209.839 263.906 210.112 263.359 210.672C262.812 211.219 262.539 211.98 262.539 212.957C262.539 213.947 262.806 214.721 263.34 215.281C263.887 215.841 264.564 216.115 265.371 216.102C266.178 216.089 266.849 215.809 267.383 215.262C267.93 214.702 268.203 213.934 268.203 212.957C268.203 211.993 267.93 211.238 267.383 210.691C266.849 210.145 266.178 209.865 265.371 209.852ZM259.629 228.895C259.629 229.676 260.033 230.288 260.84 230.73C261.647 231.186 262.852 231.414 264.453 231.414C266.198 231.414 267.454 231.212 268.223 230.809C268.991 230.405 269.375 229.891 269.375 229.266C269.375 228.615 268.906 228.289 267.969 228.289H261.973C261.178 228.289 260.443 228.237 259.766 228.133C259.674 228.38 259.629 228.634 259.629 228.895Z" fill="black"/>
<path d="M175.833 51C179.591 51 183.194 52.4926 185.851 55.1493C188.507 57.8061 190 61.4094 190 65.1667V76.8333C190 79.7381 189.107 82.5726 187.442 84.9528C185.777 87.3331 183.421 89.144 180.692 90.1403C177.964 91.1366 174.995 91.27 172.188 90.5226C169.381 89.7752 166.872 88.1829 165 85.9617C163.128 88.1829 160.619 89.7752 157.812 90.5226C155.005 91.27 152.036 91.1366 149.308 90.1403C146.579 89.144 144.223 87.3331 142.558 84.9528C140.893 82.5726 140 79.7381 140 76.8333V65.1667C140 62.2619 140.893 59.4274 142.558 57.0472C144.223 54.6669 146.579 52.856 149.308 51.8597C152.036 50.8634 155.005 50.73 157.812 51.4774C160.619 52.2249 163.128 53.8171 165 56.0383C166.328 54.4584 167.987 53.1886 169.858 52.3181C171.73 51.4477 173.769 50.9978 175.833 51ZM166.925 59C167.853 60.9231 168.335 63.0312 168.333 65.1667V76.8333C168.333 79.0433 167.827 81.135 166.925 83C168.239 84.8989 170.125 86.3282 172.309 87.0794C174.493 87.8307 176.859 87.8645 179.063 87.176C181.268 86.4874 183.194 85.1126 184.562 83.2521C185.93 81.3915 186.667 79.1426 186.667 76.8333V75.1667C186.667 75.9327 186.516 76.6913 186.223 77.399C185.929 78.1067 185.5 78.7498 184.958 79.2915C184.416 79.8331 183.773 80.2628 183.066 80.556C182.358 80.8491 181.599 81 180.833 81C180.067 81 179.309 80.8491 178.601 80.556C177.893 80.2628 177.25 79.8331 176.709 79.2915C176.167 78.7498 175.737 78.1067 175.444 77.399C175.151 76.6913 175 75.9327 175 75.1667V66.8333C175 66.0673 175.151 65.3088 175.444 64.601C175.737 63.8933 176.167 63.2502 176.709 62.7086C177.25 62.1669 177.893 61.7372 178.601 61.444C179.309 61.1509 180.067 61 180.833 61C181.599 61 182.358 61.1509 183.066 61.444C183.773 61.7372 184.416 62.1669 184.958 62.7086C185.5 63.2502 185.929 63.8933 186.223 64.601C186.516 65.3088 186.667 66.0673 186.667 66.8333V65.1667C186.667 62.8575 185.93 60.6085 184.562 58.748C183.194 56.8874 181.268 55.5126 179.063 54.8241C176.859 54.1355 174.493 54.1694 172.309 54.9206C170.125 55.6718 168.239 57.1011 166.925 59ZM165 65.1667C165 62.2935 163.859 59.538 161.827 57.5064C159.795 55.4747 157.04 54.3333 154.167 54.3333C151.293 54.3333 148.538 55.4747 146.506 57.5064C144.475 59.538 143.333 62.2935 143.333 65.1667V76.8333C143.333 79.7065 144.475 82.462 146.506 84.4937C148.538 86.5253 151.293 87.6667 154.167 87.6667C157.04 87.6667 159.795 86.5253 161.827 84.4937C163.859 82.462 165 79.7065 165 76.8333V75.1667C165 76.7138 164.385 78.1975 163.291 79.2915C162.197 80.3854 160.714 81 159.167 81C157.62 81 156.136 80.3854 155.042 79.2915C153.948 78.1975 153.333 76.7138 153.333 75.1667V66.8333C153.333 65.2862 153.948 63.8025 155.042 62.7086C156.136 61.6146 157.62 61 159.167 61C160.714 61 162.197 61.6146 163.291 62.7086C164.385 63.8025 165 65.2862 165 66.8333V65.1667ZM177.207 67.435C177.825 67.9517 178.857 67.73 179.512 66.945C180.167 66.1583 180.195 65.1033 179.577 64.5883C178.957 64.0717 177.925 64.2917 177.27 65.0783C176.615 65.865 176.587 66.92 177.207 67.435ZM155.507 65.0783C154.852 65.865 154.823 66.92 155.44 67.435C156.06 67.9517 157.093 67.73 157.747 66.945C158.402 66.1583 158.43 65.1033 157.812 64.5883C157.192 64.0717 156.16 64.2917 155.505 65.0783" fill="black"/>
<path fill-rule="evenodd" clip-rule="evenodd" d="M139.719 9.28133e-06C135.394 -0.00161885 131.124 0.966011 127.223 2.83175C123.322 4.69749 119.888 7.41391 117.175 10.7813C112.194 8.12006 106.635 6.72693 100.988 6.72501C80.5313 6.72501 65.3187 24.0625 65.6625 43.2563C54.0375 49.1125 46 61.0563 46 75.0313C46 88.95 52 97.5875 58.3375 102.631C60.9375 104.7 63.5125 106.113 65.5938 107.063C65.4188 126.144 80.5938 143.275 100.925 143.275C106.838 143.275 112.325 141.788 117.144 139.231C119.857 142.594 123.289 145.306 127.187 147.169C131.085 149.031 135.351 149.998 139.672 149.997C143.992 149.995 148.258 149.027 152.155 147.162C156.052 145.297 159.482 142.583 162.194 139.219C167.174 141.88 172.734 143.273 178.381 143.275C198.831 143.275 214.044 125.963 213.712 106.775C225.4 100.963 233.5 89.025 233.5 75.0313C233.5 61.1125 227.5 52.475 221.162 47.4313C218.933 45.6648 216.496 44.1767 213.906 43C214.081 23.9188 198.906 6.78751 178.575 6.78751C172.916 6.78134 167.342 8.1725 162.35 10.8375C159.63 7.45174 156.184 4.72012 152.267 2.84434C148.35 0.968568 144.062 -0.00346512 139.719 9.28133e-06ZM124.737 22.0875C126.064 19.2301 128.178 16.8103 130.832 15.1121C133.486 13.4139 136.568 12.5078 139.719 12.5C146.356 12.5 152.069 16.375 154.85 22.2125C155.256 23.0641 155.85 23.8126 156.587 24.4019C157.324 24.9913 158.185 25.4061 159.105 25.6154C160.025 25.8246 160.98 25.8229 161.899 25.6102C162.819 25.3976 163.678 24.9796 164.412 24.3875C168.403 21.1029 173.407 19.3009 178.575 19.2875C192.606 19.2875 203.263 32.3125 201.138 46.1875C200.964 47.3112 201.101 48.4607 201.533 49.5125C201.964 50.5642 202.675 51.4783 203.588 52.1563C204.106 52.5438 204.575 52.7688 204.7 52.825C205.031 52.9813 205.325 53.0875 205.425 53.125L206.012 53.325L206.162 53.375C206.646 53.5292 207.258 53.7583 208 54.0625C209.5 54.6875 211.45 55.675 213.375 57.2063C217.013 60.1063 221 65.2688 221 75.0313C221 85.1563 214.4 93.7375 205.125 96.825C203.719 97.2939 202.526 98.247 201.758 99.5143C200.989 100.782 200.697 102.281 200.931 103.744C203.144 117.65 192.469 130.775 178.387 130.775C173.081 130.775 168.225 128.844 164.181 125.65C163.442 125.064 162.579 124.654 161.658 124.449C160.737 124.244 159.781 124.25 158.863 124.467C157.945 124.684 157.088 125.107 156.356 125.702C155.624 126.298 155.037 127.051 154.637 127.906C153.312 130.765 151.198 133.186 148.544 134.885C145.891 136.585 142.807 137.492 139.656 137.5C133.081 137.5 127.381 133.619 124.656 127.875C124.252 127.021 123.66 126.271 122.925 125.679C122.189 125.087 121.328 124.669 120.408 124.458C119.488 124.246 118.532 124.245 117.611 124.456C116.691 124.667 115.83 125.084 115.094 125.675C111.102 128.961 106.095 130.763 100.925 130.775C86.8938 130.775 76.2375 117.75 78.3625 103.875C78.5356 102.751 78.399 101.602 77.9672 100.55C77.5355 99.4983 76.8251 98.5842 75.9125 97.9063C75.5659 97.6453 75.193 97.4212 74.8 97.2375C74.5649 97.1224 74.3227 97.0222 74.075 96.9375L73.4875 96.7375L73.3375 96.6875C72.7162 96.4825 72.1033 96.2531 71.5 96C69.5713 95.2063 67.7623 94.1482 66.125 92.8563C62.4937 89.95 58.5 84.7938 58.5 75.0313C58.5 64.8813 65.0625 56.3 74.2875 53.1563C75.6815 52.681 76.8628 51.7288 77.6232 50.4676C78.3836 49.2064 78.6742 47.7171 78.4437 46.2625C76.2312 32.35 86.9 19.225 100.988 19.225C106.294 19.225 111.15 21.1563 115.194 24.35C115.934 24.9356 116.797 25.346 117.718 25.5504C118.64 25.7548 119.595 25.7479 120.514 25.5302C121.432 25.3125 122.289 24.8896 123.02 24.2934C123.752 23.6972 124.339 22.943 124.737 22.0875ZM67.875 137.5C65.0023 137.5 62.1578 138.066 59.5038 139.165C56.8498 140.264 54.4383 141.876 52.407 143.907C50.3758 145.938 48.7645 148.35 47.6651 151.004C46.5658 153.658 46 156.502 46 159.375C46 162.248 46.5658 165.092 47.6651 167.746C48.7645 170.4 50.3758 172.812 52.407 174.843C54.4383 176.874 56.8498 178.486 59.5038 179.585C62.1578 180.684 65.0023 181.25 67.875 181.25C73.6766 181.25 79.2406 178.945 83.343 174.843C87.4453 170.741 89.75 165.177 89.75 159.375C89.75 153.573 87.4453 148.009 83.343 143.907C79.2406 139.805 73.6766 137.5 67.875 137.5ZM58.5 159.375C58.5 156.889 59.4877 154.504 61.2459 152.746C63.004 150.988 65.3886 150 67.875 150C70.3614 150 72.746 150.988 74.5041 152.746C76.2623 154.504 77.25 156.889 77.25 159.375C77.25 161.861 76.2623 164.246 74.5041 166.004C72.746 167.762 70.3614 168.75 67.875 168.75C65.3886 168.75 63.004 167.762 61.2459 166.004C59.4877 164.246 58.5 161.861 58.5 159.375Z" fill="black"/>
</svg>
