<svg width="54" height="54" viewBox="0 0 54 54" fill="none" xmlns="http://www.w3.org/2000/svg">
<path d="M27 47.7108C21.2811 53.4297 12.0081 53.4297 6.28919 47.7108C0.57027 41.9919 0.57027 32.7189 6.28919 27C0.57027 21.2811 0.57027 12.0081 6.28919 6.28919C12.0081 0.57027 21.2811 0.57027 27 6.28919C32.7189 0.57027 41.9919 0.57027 47.7108 6.28919C53.4297 12.0081 53.4297 21.2811 47.7108 27C53.4297 32.7189 53.4297 41.9919 47.7108 47.7108C41.9919 53.4297 32.7189 53.4297 27 47.7108Z" stroke="black" stroke-width="3" stroke-linecap="round" stroke-linejoin="round"/>
<path d="M10.0658 33V30.0703H11.4818V25.5879H10.0658V22.9219L16.0716 22.3457V23.625C16.4753 23.2148 16.9766 22.8991 17.5755 22.6777C18.1745 22.4564 18.8125 22.3457 19.4896 22.3457C20.8568 22.3457 21.8073 22.821 22.3412 23.7715C22.8425 23.3158 23.4121 22.9642 24.0501 22.7168C24.6947 22.4694 25.3392 22.3457 25.9837 22.3457C27.2337 22.3457 28.1387 22.6745 28.6986 23.332C29.265 23.9896 29.5482 24.9857 29.5482 26.3203V30.0703H30.9154V33H24.8607V26.3203C24.8607 25.9557 24.7793 25.6921 24.6165 25.5293C24.4603 25.36 24.2617 25.2754 24.0208 25.2754C23.8255 25.2754 23.6205 25.334 23.4056 25.4512C23.1908 25.5684 23.0085 25.7376 22.8587 25.959V30.0703H23.7376V33H18.1712V26.3203C18.1712 25.9557 18.0899 25.6921 17.9271 25.5293C17.7708 25.36 17.5723 25.2754 17.3314 25.2754C17.1361 25.2754 16.931 25.334 16.7162 25.4512C16.5013 25.5684 16.319 25.7376 16.1693 25.959V30.0703H17.0482V33H10.0658ZM38.0931 33.1758C36.1595 33.1758 34.6426 32.6908 33.5423 31.7207C32.4486 30.7441 31.9017 29.3932 31.9017 27.668C31.9017 26.5807 32.1393 25.64 32.6146 24.8457C33.0964 24.0514 33.7669 23.4395 34.6263 23.0098C35.4857 22.5736 36.485 22.3555 37.6244 22.3555C38.7376 22.3555 39.6914 22.5605 40.4857 22.9707C41.28 23.3743 41.8854 23.9408 42.3021 24.6699C42.7253 25.3926 42.9369 26.2292 42.9369 27.1797C42.9369 27.401 42.9271 27.6159 42.9076 27.8242C42.888 28.026 42.8652 28.2116 42.8392 28.3809H36.5599C36.6706 29.0449 36.9701 29.5234 37.4583 29.8164C37.9531 30.1029 38.5553 30.2461 39.265 30.2461C39.8639 30.2461 40.4336 30.1419 40.974 29.9336C41.5208 29.7188 41.9831 29.4518 42.3607 29.1328L42.6244 29.25V32.0527C42.3119 32.2676 41.9082 32.4596 41.4134 32.6289C40.9186 32.7982 40.3815 32.9316 39.8021 33.0293C39.2292 33.127 38.6595 33.1758 38.0931 33.1758ZM37.8783 24.7578C37.4421 24.7578 37.1133 24.9271 36.8919 25.2656C36.6706 25.6042 36.5469 26.0762 36.5208 26.6816H39.2357C39.2096 26.0762 39.0859 25.6042 38.8646 25.2656C38.6497 24.9271 38.321 24.7578 37.8783 24.7578Z" fill="black"/>
</svg>
