<svg width="72" height="72" viewBox="0 0 72 72" fill="none" xmlns="http://www.w3.org/2000/svg">
<path d="M36 64.9951C27.9935 73.0016 15.0114 73.0016 7.00486 64.9951C-1.00162 56.9886 -1.00162 44.0065 7.00486 36C-1.00162 27.9935 -1.00162 15.0114 7.00486 7.00486C15.0114 -1.00162 27.9935 -1.00162 36 7.00486C44.0065 -1.00162 56.9886 -1.00162 64.9951 7.00486C73.0016 15.0114 73.0016 27.9935 64.9951 36C73.0016 44.0065 73.0016 56.9886 64.9951 64.9951C56.9886 73.0016 44.0065 73.0016 36 64.9951Z" fill="black" stroke="black" stroke-linecap="round" stroke-linejoin="round"/>
<path d="M47.2555 24.2286C47.82 23.6912 48.5712 23.3941 49.3506 23.4C50.13 23.4059 50.8766 23.7143 51.4329 24.2602C51.9892 24.8061 52.3116 25.5468 52.3322 26.3259C52.3528 27.1051 52.07 27.8617 51.5433 28.4363L35.5543 48.4325C35.2793 48.7287 34.9475 48.9663 34.5786 49.1313C34.2098 49.2962 33.8114 49.3851 33.4074 49.3926C33.0034 49.4001 32.602 49.326 32.2273 49.1748C31.8525 49.0236 31.5121 48.7984 31.2264 48.5127L20.6232 37.9094C20.3279 37.6343 20.0911 37.3025 19.9268 36.9338C19.7625 36.5652 19.6742 36.1672 19.6671 35.7636C19.66 35.3601 19.7342 34.9592 19.8854 34.585C20.0365 34.2108 20.2615 33.8708 20.5469 33.5854C20.8323 33.3 21.1722 33.0751 21.5465 32.9239C21.9207 32.7727 22.3216 32.6985 22.7251 32.7056C23.1286 32.7127 23.5266 32.8011 23.8953 32.9653C24.264 33.1296 24.5958 33.3664 24.8709 33.6617L33.2621 42.0489L47.1794 24.3168L47.2555 24.2286Z" fill="white"/>
</svg>
