<svg width="524" height="76" viewBox="0 0 524 76" fill="none" xmlns="http://www.w3.org/2000/svg">
<path d="M41.5467 16.3199C42.749 16.3199 43.9021 16.7976 44.7522 17.6477C45.6024 18.4979 46.08 19.651 46.08 20.8533V24.5866C46.08 25.5161 45.7942 26.4232 45.2615 27.1849C44.7287 27.9465 43.9747 28.526 43.1015 28.8448C42.2284 29.1636 41.2784 29.2064 40.3802 28.9672C39.482 28.728 38.679 28.2185 38.08 27.5077C37.4811 28.2185 36.6781 28.728 35.7799 28.9672C34.8816 29.2064 33.9316 29.1636 33.0585 28.8448C32.1854 28.526 31.4313 27.9465 30.8986 27.1849C30.3658 26.4232 30.08 25.5161 30.08 24.5866V20.8533C30.08 19.9238 30.3658 19.0167 30.8986 18.255C31.4313 17.4934 32.1854 16.9139 33.0585 16.5951C33.9316 16.2762 34.8816 16.2335 35.7799 16.4727C36.6781 16.7119 37.4811 17.2214 38.08 17.9322C38.5051 17.4266 39.0357 17.0203 39.6346 16.7418C40.2335 16.4632 40.8862 16.3192 41.5467 16.3199ZM38.696 18.8799C38.993 19.4954 39.1471 20.1699 39.1467 20.8533V24.5866C39.1467 25.2938 38.9845 25.9631 38.696 26.5599C39.1165 27.1676 39.7202 27.625 40.4189 27.8654C41.1177 28.1058 41.875 28.1166 42.5803 27.8963C43.2856 27.6759 43.9021 27.236 44.3398 26.6406C44.7775 26.0452 45.0135 25.3256 45.0134 24.5866V24.0533C45.0134 24.2984 44.9651 24.5411 44.8713 24.7676C44.7774 24.9941 44.64 25.1999 44.4666 25.3732C44.2933 25.5466 44.0875 25.684 43.861 25.7779C43.6346 25.8717 43.3918 25.9199 43.1467 25.9199C42.9015 25.9199 42.6588 25.8717 42.4323 25.7779C42.2059 25.684 42.0001 25.5466 41.8268 25.3732C41.6534 25.1999 41.5159 24.9941 41.4221 24.7676C41.3283 24.5411 41.28 24.2984 41.28 24.0533V21.3866C41.28 21.1415 41.3283 20.8987 41.4221 20.6723C41.5159 20.4458 41.6534 20.24 41.8268 20.0667C42.0001 19.8933 42.2059 19.7558 42.4323 19.662C42.6588 19.5682 42.9015 19.5199 43.1467 19.5199C43.3918 19.5199 43.6346 19.5682 43.861 19.662C44.0875 19.7558 44.2933 19.8933 44.4666 20.0667C44.64 20.24 44.7774 20.4458 44.8713 20.6723C44.9651 20.8987 45.0134 21.1415 45.0134 21.3866V20.8533C45.0135 20.1143 44.7775 19.3947 44.3398 18.7993C43.9021 18.2039 43.2856 17.764 42.5803 17.5436C41.875 17.3233 41.1177 17.3341 40.4189 17.5745C39.7202 17.8149 39.1165 18.2723 38.696 18.8799ZM38.08 20.8533C38.08 19.9339 37.7148 19.0521 37.0647 18.402C36.4145 17.7519 35.5328 17.3866 34.6133 17.3866C33.6939 17.3866 32.8122 17.7519 32.162 18.402C31.5119 19.0521 31.1467 19.9339 31.1467 20.8533V24.5866C31.1467 25.506 31.5119 26.3878 32.162 27.0379C32.8122 27.688 33.6939 28.0533 34.6133 28.0533C35.5328 28.0533 36.4145 27.688 37.0647 27.0379C37.7148 26.3878 38.08 25.506 38.08 24.5866V24.0533C38.08 24.5484 37.8834 25.0231 37.5333 25.3732C37.1832 25.7233 36.7084 25.9199 36.2133 25.9199C35.7183 25.9199 35.2435 25.7233 34.8934 25.3732C34.5433 25.0231 34.3467 24.5484 34.3467 24.0533V21.3866C34.3467 20.8915 34.5433 20.4168 34.8934 20.0667C35.2435 19.7166 35.7183 19.5199 36.2133 19.5199C36.7084 19.5199 37.1832 19.7166 37.5333 20.0667C37.8834 20.4168 38.08 20.8915 38.08 21.3866V20.8533ZM41.9861 21.5791C42.184 21.7445 42.5141 21.6735 42.7237 21.4223C42.9333 21.1706 42.9424 20.833 42.7445 20.6682C42.5461 20.5029 42.216 20.5733 42.0064 20.825C41.7968 21.0767 41.7877 21.4143 41.9861 21.5791ZM35.0421 20.825C34.8325 21.0767 34.8235 21.4143 35.0208 21.5791C35.2192 21.7445 35.5499 21.6735 35.7589 21.4223C35.9685 21.1706 35.9776 20.833 35.7797 20.6682C35.5813 20.5029 35.2512 20.5733 35.0416 20.825" fill="black"/>
<path fill-rule="evenodd" clip-rule="evenodd" d="M29.99 2.97002e-06C28.6062 -0.000518031 27.2398 0.309124 25.9914 0.906161C24.743 1.5032 23.6443 2.37245 22.776 3.45C21.1822 2.59842 19.4031 2.15262 17.596 2.152C11.05 2.152 6.182 7.7 6.292 13.842C2.572 15.716 2.38419e-07 19.538 2.38419e-07 24.01C2.38419e-07 28.464 1.92 31.228 3.948 32.842C4.78 33.504 5.604 33.956 6.27 34.26C6.214 40.366 11.07 45.848 17.576 45.848C19.468 45.848 21.224 45.372 22.766 44.554C23.6342 45.63 24.7324 46.4978 25.9798 47.0939C27.2273 47.6901 28.5924 47.9993 29.975 47.9989C31.3575 47.9985 32.7225 47.6885 33.9696 47.0917C35.2167 46.4949 36.3144 45.6264 37.182 44.55C38.7758 45.4016 40.5549 45.8474 42.362 45.848C48.906 45.848 53.774 40.308 53.668 34.168C57.408 32.308 60 28.488 60 24.01C60 19.556 58.08 16.792 56.052 15.178C55.3385 14.6127 54.5587 14.1366 53.73 13.76C53.786 7.654 48.93 2.172 42.424 2.172C40.613 2.17003 38.8296 2.6152 37.232 3.468C36.3616 2.38456 35.259 1.51044 34.0055 0.91019C32.752 0.309942 31.3798 -0.00110884 29.99 2.97002e-06ZM25.196 7.068C25.6206 6.15362 26.2971 5.3793 27.1462 4.83588C27.9954 4.29246 28.9819 4.0025 29.99 4C32.114 4 33.942 5.24 34.832 7.108C34.962 7.3805 35.1521 7.62003 35.3878 7.80861C35.6236 7.9972 35.8991 8.12996 36.1935 8.19692C36.4879 8.26388 36.7936 8.26332 37.0878 8.19527C37.382 8.12722 37.6569 7.99346 37.892 7.804C39.1688 6.75293 40.7702 6.17628 42.424 6.172C46.914 6.172 50.324 10.34 49.644 14.78C49.5886 15.1396 49.6323 15.5074 49.7705 15.844C49.9086 16.1805 50.136 16.4731 50.428 16.69C50.594 16.814 50.744 16.886 50.784 16.904C50.89 16.954 50.984 16.988 51.016 17L51.204 17.064L51.252 17.08C51.4067 17.1293 51.6027 17.2027 51.84 17.3C52.32 17.5 52.944 17.816 53.56 18.306C54.724 19.234 56 20.886 56 24.01C56 27.25 53.888 29.996 50.92 30.984C50.4701 31.134 50.0882 31.439 49.8424 31.8446C49.5966 32.2501 49.5029 32.7298 49.578 33.198C50.286 37.648 46.87 41.848 42.364 41.848C40.666 41.848 39.112 41.23 37.818 40.208C37.5813 40.0206 37.3052 39.8891 37.0105 39.8236C36.7158 39.758 36.41 39.7601 36.1162 39.8295C35.8223 39.899 35.5481 40.0341 35.3139 40.2247C35.0797 40.4153 34.8917 40.6564 34.764 40.93C34.3397 41.8448 33.6633 42.6195 32.8142 43.1633C31.965 43.7071 30.9783 43.9973 29.97 44C27.866 44 26.042 42.758 25.17 40.92C25.0407 40.6469 24.8513 40.4066 24.6158 40.2172C24.3804 40.0278 24.1051 39.8942 23.8106 39.8264C23.5161 39.7587 23.2101 39.7585 22.9156 39.826C22.621 39.8935 22.3456 40.0268 22.11 40.216C20.8326 41.2675 19.2305 41.8442 17.576 41.848C13.086 41.848 9.676 37.68 10.356 33.24C10.4114 32.8804 10.3677 32.5126 10.2295 32.176C10.0914 31.8395 9.86404 31.547 9.572 31.33C9.46108 31.2465 9.34177 31.1748 9.216 31.116C9.14075 31.0792 9.06327 31.0471 8.984 31.02L8.796 30.956L8.748 30.94C8.5492 30.8744 8.35305 30.801 8.16 30.72C7.54281 30.466 6.96394 30.1274 6.44 29.714C5.278 28.784 4 27.134 4 24.01C4 20.762 6.1 18.016 9.052 17.01C9.49807 16.8579 9.8761 16.5532 10.1194 16.1496C10.3628 15.746 10.4558 15.2695 10.382 14.804C9.674 10.352 13.088 6.152 17.596 6.152C19.294 6.152 20.848 6.77 22.142 7.792C22.3788 7.97939 22.655 8.11072 22.9498 8.17612C23.2447 8.24153 23.5505 8.23932 23.8443 8.16965C24.1382 8.09999 24.4125 7.96469 24.6466 7.77389C24.8806 7.5831 25.0685 7.34176 25.196 7.068ZM7 44C6.08075 44 5.1705 44.1811 4.32122 44.5328C3.47194 44.8846 2.70026 45.4002 2.05025 46.0503C1.40024 46.7003 0.884626 47.4719 0.532843 48.3212C0.18106 49.1705 0 50.0808 0 51C0 51.9193 0.18106 52.8295 0.532843 53.6788C0.884626 54.5281 1.40024 55.2997 2.05025 55.9498C2.70026 56.5998 3.47194 57.1154 4.32122 57.4672C5.1705 57.8189 6.08075 58 7 58C8.85652 58 10.637 57.2625 11.9497 55.9498C13.2625 54.637 14 52.8565 14 51C14 49.1435 13.2625 47.363 11.9497 46.0503C10.637 44.7375 8.85652 44 7 44ZM4 51C4 50.2044 4.31607 49.4413 4.87868 48.8787C5.44129 48.3161 6.20435 48 7 48C7.79565 48 8.55871 48.3161 9.12132 48.8787C9.68393 49.4413 10 50.2044 10 51C10 51.7957 9.68393 52.5587 9.12132 53.1213C8.55871 53.6839 7.79565 54 7 54C6.20435 54 5.44129 53.6839 4.87868 53.1213C4.31607 52.5587 4 51.7957 4 51Z" fill="black"/>
<path d="M71.4648 58V52.1406H74.2969V43.1758H71.4648V37.8438L83.4766 36.6914V39.25C84.2839 38.4297 85.2865 37.7982 86.4844 37.3555C87.6823 36.9128 88.9583 36.6914 90.3125 36.6914C93.0469 36.6914 94.9479 37.6419 96.0156 39.543C97.0182 38.6315 98.1576 37.9284 99.4336 37.4336C100.723 36.9388 102.012 36.6914 103.301 36.6914C105.801 36.6914 107.611 37.349 108.73 38.6641C109.863 39.9792 110.43 41.9714 110.43 44.6406V52.1406H113.164V58H101.055V44.6406C101.055 43.9115 100.892 43.3841 100.566 43.0586C100.254 42.7201 99.8568 42.5508 99.375 42.5508C98.9844 42.5508 98.5742 42.668 98.1445 42.9023C97.7148 43.1367 97.3503 43.4753 97.0508 43.918V52.1406H98.8086V58H87.6758V44.6406C87.6758 43.9115 87.513 43.3841 87.1875 43.0586C86.875 42.7201 86.4779 42.5508 85.9961 42.5508C85.6055 42.5508 85.1953 42.668 84.7656 42.9023C84.3359 43.1367 83.9714 43.4753 83.6719 43.918V52.1406H85.4297V58H71.4648ZM124.324 58.3516C122.983 58.3516 121.785 58.0846 120.73 57.5508C119.689 57.0039 118.868 56.2552 118.27 55.3047C117.684 54.3542 117.391 53.2604 117.391 52.0234C117.391 50.0964 118.133 48.5599 119.617 47.4141C121.102 46.2682 123.081 45.6953 125.555 45.6953C126.414 45.6953 127.234 45.7474 128.016 45.8516C128.797 45.9557 129.591 46.1315 130.398 46.3789V45.9492C130.398 44.7643 130.034 43.9049 129.305 43.3711C128.589 42.8372 127.436 42.5703 125.848 42.5703C124.702 42.5703 123.543 42.7201 122.371 43.0195C121.199 43.319 120.132 43.7357 119.168 44.2695L118.641 44.0352V38.332C120.008 37.7982 121.557 37.3945 123.289 37.1211C125.034 36.8477 126.785 36.7109 128.543 36.7109C132.436 36.7109 135.281 37.362 137.078 38.6641C138.875 39.9661 139.773 42.056 139.773 44.9336V52.1406H142.312V58H131.648L130.691 54.9336C130.079 56.0013 129.207 56.8411 128.074 57.4531C126.954 58.0521 125.704 58.3516 124.324 58.3516ZM128.406 53.3516C128.758 53.3516 129.122 53.293 129.5 53.1758C129.891 53.0456 130.19 52.8763 130.398 52.668V49.4062C130.073 49.263 129.741 49.1654 129.402 49.1133C129.077 49.0612 128.771 49.0352 128.484 49.0352C127.82 49.0352 127.26 49.2305 126.805 49.6211C126.362 50.0117 126.141 50.5326 126.141 51.1836C126.141 51.8477 126.349 52.375 126.766 52.7656C127.182 53.1562 127.729 53.3516 128.406 53.3516ZM146.266 58V52.1406H149.098V34.1328H146.266V28.8008L158.473 27.5312V46.9453L163.258 42.9219H160.25V37.0625H173.453V42.9219H169.742L166.344 45.7734L170.934 52.1406H173.863V58H163.941L158.473 50.2461V58H146.266ZM189.809 58.3516C185.941 58.3516 182.908 57.3815 180.707 55.4414C178.52 53.4883 177.426 50.7865 177.426 47.3359C177.426 45.1615 177.901 43.2799 178.852 41.6914C179.815 40.1029 181.156 38.8789 182.875 38.0195C184.594 37.1471 186.592 36.7109 188.871 36.7109C191.098 36.7109 193.005 37.1211 194.594 37.9414C196.182 38.7487 197.393 39.8815 198.227 41.3398C199.073 42.7852 199.496 44.4583 199.496 46.3594C199.496 46.8021 199.477 47.2318 199.438 47.6484C199.398 48.0521 199.353 48.4232 199.301 48.7617H186.742C186.964 50.0898 187.562 51.0469 188.539 51.6328C189.529 52.2057 190.733 52.4922 192.152 52.4922C193.35 52.4922 194.49 52.2839 195.57 51.8672C196.664 51.4375 197.589 50.9036 198.344 50.2656L198.871 50.5V56.1055C198.246 56.5352 197.439 56.9193 196.449 57.2578C195.46 57.5964 194.385 57.8633 193.227 58.0586C192.081 58.2539 190.941 58.3516 189.809 58.3516ZM189.379 41.5156C188.507 41.5156 187.849 41.8542 187.406 42.5312C186.964 43.2083 186.716 44.1523 186.664 45.3633H192.094C192.042 44.1523 191.794 43.2083 191.352 42.5312C190.922 41.8542 190.264 41.5156 189.379 41.5156ZM220.996 58.3516C219.655 58.3516 218.457 58.0846 217.402 57.5508C216.361 57.0039 215.54 56.2552 214.941 55.3047C214.355 54.3542 214.062 53.2604 214.062 52.0234C214.062 50.0964 214.805 48.5599 216.289 47.4141C217.773 46.2682 219.753 45.6953 222.227 45.6953C223.086 45.6953 223.906 45.7474 224.688 45.8516C225.469 45.9557 226.263 46.1315 227.07 46.3789V45.9492C227.07 44.7643 226.706 43.9049 225.977 43.3711C225.26 42.8372 224.108 42.5703 222.52 42.5703C221.374 42.5703 220.215 42.7201 219.043 43.0195C217.871 43.319 216.803 43.7357 215.84 44.2695L215.312 44.0352V38.332C216.68 37.7982 218.229 37.3945 219.961 37.1211C221.706 36.8477 223.457 36.7109 225.215 36.7109C229.108 36.7109 231.953 37.362 233.75 38.6641C235.547 39.9661 236.445 42.056 236.445 44.9336V52.1406H238.984V58H228.32L227.363 54.9336C226.751 56.0013 225.879 56.8411 224.746 57.4531C223.626 58.0521 222.376 58.3516 220.996 58.3516ZM225.078 53.3516C225.43 53.3516 225.794 53.293 226.172 53.1758C226.562 53.0456 226.862 52.8763 227.07 52.668V49.4062C226.745 49.263 226.413 49.1654 226.074 49.1133C225.749 49.0612 225.443 49.0352 225.156 49.0352C224.492 49.0352 223.932 49.2305 223.477 49.6211C223.034 50.0117 222.812 50.5326 222.812 51.1836C222.812 51.8477 223.021 52.375 223.438 52.7656C223.854 53.1562 224.401 53.3516 225.078 53.3516ZM265.66 65.7734V59.9141H268.492V55.9102C266.487 57.5378 264.365 58.3516 262.125 58.3516C260.393 58.3516 258.876 57.9089 257.574 57.0234C256.285 56.138 255.283 54.888 254.566 53.2734C253.85 51.6458 253.492 49.7448 253.492 47.5703C253.492 45.3438 253.889 43.4232 254.684 41.8086C255.478 40.181 256.617 38.9245 258.102 38.0391C259.586 37.1536 261.35 36.7109 263.395 36.7109C264.462 36.7109 265.536 36.8867 266.617 37.2383C267.711 37.5768 268.74 38.0846 269.703 38.7617L270.484 37.0625H277.867V59.9141H280.699V65.7734H265.66ZM265.641 52.5117C266.135 52.5117 266.643 52.4271 267.164 52.2578C267.698 52.0755 268.141 51.8607 268.492 51.6133V43.3125C267.737 42.8047 266.852 42.5508 265.836 42.5508C264.82 42.5508 264.046 42.9935 263.512 43.8789C262.991 44.7643 262.73 45.9883 262.73 47.5508C262.73 49.1133 262.984 50.3307 263.492 51.2031C264.013 52.0755 264.729 52.5117 265.641 52.5117ZM293.5 58.3711C288.682 58.3711 286.273 55.6628 286.273 50.2461V43.1758H283.539V37.8438L295.648 36.6914V50.2656C295.648 51.0599 295.824 51.6328 296.176 51.9844C296.527 52.3359 296.977 52.5117 297.523 52.5117C298.5 52.5117 299.255 52.0104 299.789 51.0078V43.1758H298.031V37.8438L309.164 36.6914V52.1406H311.898V58H299.984V55.7148C299.203 56.5482 298.272 57.1992 297.191 57.668C296.124 58.1367 294.893 58.3711 293.5 58.3711ZM328.254 58.3516C324.387 58.3516 321.353 57.3815 319.152 55.4414C316.965 53.4883 315.871 50.7865 315.871 47.3359C315.871 45.1615 316.346 43.2799 317.297 41.6914C318.26 40.1029 319.602 38.8789 321.32 38.0195C323.039 37.1471 325.038 36.7109 327.316 36.7109C329.543 36.7109 331.451 37.1211 333.039 37.9414C334.628 38.7487 335.839 39.8815 336.672 41.3398C337.518 42.7852 337.941 44.4583 337.941 46.3594C337.941 46.8021 337.922 47.2318 337.883 47.6484C337.844 48.0521 337.798 48.4232 337.746 48.7617H325.188C325.409 50.0898 326.008 51.0469 326.984 51.6328C327.974 52.2057 329.178 52.4922 330.598 52.4922C331.796 52.4922 332.935 52.2839 334.016 51.8672C335.109 51.4375 336.034 50.9036 336.789 50.2656L337.316 50.5V56.1055C336.691 56.5352 335.884 56.9193 334.895 57.2578C333.905 57.5964 332.831 57.8633 331.672 58.0586C330.526 58.2539 329.387 58.3516 328.254 58.3516ZM327.824 41.5156C326.952 41.5156 326.294 41.8542 325.852 42.5312C325.409 43.2083 325.161 44.1523 325.109 45.3633H330.539C330.487 44.1523 330.24 43.2083 329.797 42.5312C329.367 41.8542 328.71 41.5156 327.824 41.5156ZM354.375 58.3516C353.047 58.3516 351.758 58.1953 350.508 57.8828C349.258 57.5703 348.151 57.1211 347.188 56.5352L346.582 58H342.285V50.6562H347.285C347.585 51.6719 348.105 52.4727 348.848 53.0586C349.59 53.6445 350.397 53.9375 351.27 53.9375C352.415 53.9375 352.988 53.5078 352.988 52.6484C352.988 52.0234 352.728 51.5417 352.207 51.2031C351.699 50.8646 351.035 50.5781 350.215 50.3438C349.408 50.1094 348.548 49.8555 347.637 49.582C346.725 49.3086 345.859 48.9375 345.039 48.4688C344.232 47.987 343.568 47.3359 343.047 46.5156C342.539 45.6823 342.285 44.5951 342.285 43.2539C342.285 42.043 342.604 40.9427 343.242 39.9531C343.893 38.9635 344.87 38.1758 346.172 37.5898C347.487 36.9909 349.134 36.6914 351.113 36.6914C352.389 36.6914 353.568 36.8281 354.648 37.1016C355.742 37.362 356.764 37.7852 357.715 38.3711L358.184 37.0625H362.48V43.7812H357.48C357.142 42.7917 356.654 42.069 356.016 41.6133C355.391 41.1445 354.714 40.9102 353.984 40.9102C352.708 40.9102 352.07 41.3008 352.07 42.082C352.07 42.6289 352.331 43.0651 352.852 43.3906C353.385 43.7031 354.062 43.9766 354.883 44.2109C355.716 44.4453 356.595 44.7122 357.52 45.0117C358.444 45.3112 359.316 45.7148 360.137 46.2227C360.97 46.7305 361.647 47.4076 362.168 48.2539C362.702 49.1003 362.969 50.2005 362.969 51.5547C362.969 53.625 362.22 55.2786 360.723 56.5156C359.238 57.7396 357.122 58.3516 354.375 58.3516ZM379.031 58.3516C375.945 58.3516 373.562 57.6484 371.883 56.2422C370.203 54.8229 369.363 52.7721 369.363 50.0898V42.9219H366.141V37.5898L369.363 37.2773V32.5898L378.738 30.5391V37.0625H383.465V42.9219H378.738V49.8945C378.738 50.6758 378.927 51.2878 379.305 51.7305C379.695 52.1602 380.281 52.375 381.062 52.375C381.518 52.375 381.902 52.3359 382.215 52.2578C382.54 52.1667 382.846 52.0755 383.133 51.9844L383.66 52.2188V57.8047C382.918 57.974 382.169 58.1042 381.414 58.1953C380.672 58.2995 379.878 58.3516 379.031 58.3516ZM387.691 58V52.1406H390.719V43.1758H387.691V37.8438L400.094 36.6914V52.1406H403.121V58H387.691ZM395.406 35.3828C393.701 35.3828 392.333 34.9727 391.305 34.1523C390.289 33.332 389.781 32.2448 389.781 30.8906C389.781 29.5365 390.289 28.4688 391.305 27.6875C392.32 26.8932 393.694 26.4961 395.426 26.4961C397.197 26.4961 398.57 26.8802 399.547 27.6484C400.536 28.4167 401.031 29.4974 401.031 30.8906C401.031 32.2708 400.523 33.3646 399.508 34.1719C398.505 34.9792 397.138 35.3828 395.406 35.3828ZM418.676 58.3516C416.228 58.3516 414.112 57.9154 412.328 57.043C410.557 56.1706 409.19 54.9271 408.227 53.3125C407.276 51.6979 406.801 49.7773 406.801 47.5508C406.801 45.3112 407.276 43.3841 408.227 41.7695C409.19 40.1549 410.557 38.9115 412.328 38.0391C414.112 37.1536 416.228 36.7109 418.676 36.7109C421.124 36.7109 423.233 37.1536 425.004 38.0391C426.788 38.9115 428.155 40.1549 429.105 41.7695C430.069 43.3841 430.551 45.3112 430.551 47.5508C430.551 49.7773 430.069 51.6979 429.105 53.3125C428.155 54.9271 426.788 56.1706 425.004 57.043C423.233 57.9154 421.124 58.3516 418.676 58.3516ZM418.676 52.668C420.434 52.668 421.312 50.9557 421.312 47.5312C421.312 44.1068 420.434 42.3945 418.676 42.3945C416.918 42.3945 416.039 44.1068 416.039 47.5312C416.039 50.9557 416.918 52.668 418.676 52.668ZM435.051 58V52.1406H437.883V43.1758H435.051V37.8438L447.062 36.6914V39.3477C447.87 38.5013 448.879 37.8503 450.09 37.3945C451.301 36.9258 452.603 36.6914 453.996 36.6914C456.353 36.6914 458.078 37.362 459.172 38.7031C460.279 40.0312 460.832 42.0365 460.832 44.7188V52.1406H463.566V58H451.457V44.7188C451.457 43.9635 451.294 43.4167 450.969 43.0781C450.643 42.7266 450.214 42.5508 449.68 42.5508C449.237 42.5508 448.794 42.681 448.352 42.9414C447.922 43.2018 447.557 43.5599 447.258 44.0156V52.1406H449.016V58H435.051ZM489.852 58.3516C486.766 58.3516 484.383 57.6484 482.703 56.2422C481.023 54.8229 480.184 52.7721 480.184 50.0898V42.9219H476.961V37.5898L480.184 37.2773V32.5898L489.559 30.5391V37.0625H494.285V42.9219H489.559V49.8945C489.559 50.6758 489.747 51.2878 490.125 51.7305C490.516 52.1602 491.102 52.375 491.883 52.375C492.339 52.375 492.723 52.3359 493.035 52.2578C493.361 52.1667 493.667 52.0755 493.953 51.9844L494.48 52.2188V57.8047C493.738 57.974 492.99 58.1042 492.234 58.1953C491.492 58.2995 490.698 58.3516 489.852 58.3516ZM510.152 58.3516C507.704 58.3516 505.589 57.9154 503.805 57.043C502.034 56.1706 500.667 54.9271 499.703 53.3125C498.753 51.6979 498.277 49.7773 498.277 47.5508C498.277 45.3112 498.753 43.3841 499.703 41.7695C500.667 40.1549 502.034 38.9115 503.805 38.0391C505.589 37.1536 507.704 36.7109 510.152 36.7109C512.6 36.7109 514.71 37.1536 516.48 38.0391C518.264 38.9115 519.632 40.1549 520.582 41.7695C521.546 43.3841 522.027 45.3112 522.027 47.5508C522.027 49.7773 521.546 51.6979 520.582 53.3125C519.632 54.9271 518.264 56.1706 516.48 57.043C514.71 57.9154 512.6 58.3516 510.152 58.3516ZM510.152 52.668C511.91 52.668 512.789 50.9557 512.789 47.5312C512.789 44.1068 511.91 42.3945 510.152 42.3945C508.395 42.3945 507.516 44.1068 507.516 47.5312C507.516 50.9557 508.395 52.668 510.152 52.668Z" fill="black"/>
</svg>
